<?xml version="1.0" encoding="UTF-8" standalone="no"?>
<svg width="30px" height="29px" viewBox="0 0 30 29" version="1.1" xmlns="http://www.w3.org/2000/svg"
     xmlns:xlink="http://www.w3.org/1999/xlink">
  <!-- Generator: sketchtool 50.2 (55047) - http://www.bohemiancoding.com/sketch -->
  <title>77FF77D5-5F09-4203-B2D7-ED0FBE9FF408</title>
  <desc>Created with sketchtool.</desc>
  <defs>
    <path
      d="M14.9888932,0 C6.6702382,0 0.0403327078,6.41025641 0.0403327078,14.3249608 C0.0403327078,16.8105704 0.728341769,19.1653585 1.85417478,21.2585034 C2.04181361,21.5855573 2.10435989,21.978022 1.97926733,22.3704867 L0.0403327078,27.9304029 C-0.147306127,28.4536892 0.353064099,28.9115646 0.853434325,28.7807431 L6.23241426,26.6221873 C6.54514565,26.4913658 6.92042332,26.5567766 7.29570099,26.7530089 C9.54736701,28.0612245 12.236857,28.8461538 15.1139858,28.8461538 C23.3075482,28.7807431 30,22.4358974 30,14.4557823 C29.9374537,6.41025641 23.2450019,4.64771544e-15 14.9888932,4.64771544e-15 L14.9888932,0 Z M7.48333982,17.0068027 C6.1073217,17.0068027 4.98148869,15.8294087 4.98148869,14.3903715 C4.98148869,12.9513344 6.1073217,11.7739403 7.48333982,11.7739403 C8.85935794,11.7739403 9.98519095,12.9513344 9.98519095,14.3903715 C9.98519095,15.8294087 8.85935794,17.0068027 7.48333982,17.0068027 Z M14.9888932,17.0068027 C13.6128751,17.0068027 12.4870421,15.8294087 12.4870421,14.3903715 C12.4870421,12.9513344 13.6128751,11.7739403 14.9888932,11.7739403 C16.3649113,11.7739403 17.4907443,12.9513344 17.4907443,14.3903715 C17.4907443,15.8294087 16.3649113,17.0068027 14.9888932,17.0068027 Z M22.4944466,17.0068027 C21.1184285,17.0068027 19.9925955,15.8294087 19.9925955,14.3903715 C19.9925955,12.9513344 21.1184285,11.7739403 22.4944466,11.7739403 C23.8704647,11.7739403 24.9962977,12.9513344 24.9962977,14.3903715 C24.9962977,15.8294087 23.8704647,17.0068027 22.4944466,17.0068027 Z"
      id="path-1"></path>
  </defs>
  <g id="Symbols" stroke="none" stroke-width="1" fill="none" fill-rule="evenodd">
    <g id="Desktop-Header" transform="translate(-1104.000000, -28.000000)">
      <g id="help-icon" transform="translate(1104.000000, 28.000000)">
        <mask id="mask-2" fill="white">
          <use xlink:href="#path-1"></use>
        </mask>
        <use id="Mask" fill="#FFFFFF" xlink:href="#path-1"></use>
      </g>
    </g>
  </g>
</svg>
