<svg xmlns="http://www.w3.org/2000/svg" width="89" height="20" viewBox="0 0 89 20">
  <g fill="none" fill-rule="evenodd">
    <path fill="#27A9E0" d="M87.4209958,15.3555099 L87.4209958,0 L86.4305962,0 L83.1853585,0.885894801 L83.1853585,1.61421938 L84.7632048,1.61421938 L84.7632048,6.47399626 C84.0422124,6.22382922 83.749261,6.17869799 83.1189716,6.17869799 C80.02928,6.17869799 77.6864407,8.63134658 77.6864407,11.8344963 C77.6864407,14.8326102 79.4889216,17.037037 81.9903947,17.037037 C83.1409719,17.037037 83.7044885,16.7417388 84.7632048,15.6511972 L84.7632048,16.9697293 L85.7543764,16.9697293 L89,16.1036766 L89,15.3555099 L87.4209958,15.3555099 Z M84.7632048,14.4700041 C84.086599,15.1528084 83.5010822,15.4706723 82.9147934,15.4706723 C81.6075122,15.4706723 80.5491819,13.6961593 80.5491819,11.5166324 C80.5491819,9.0869385 81.8549191,7.22255208 83.5470126,7.22255208 C84.3795504,7.22255208 84.7632048,7.74506272 84.7632048,8.9488214 L84.7632048,14.4700041 Z"/>
    <polygon fill="#27A9E0" points="74.898 0 74.028 0 70.898 .901 70.898 1.642 72.355 1.642 72.355 16.064 71.073 16.064 71.073 17.037 76.178 17.037 76.178 16.064 74.898 16.064"/>
    <polygon fill="#27A9E0" points="52.042 2.448 52.042 1.481 47.439 1.481 47.439 2.448 49.129 2.448 44.854 13.153 40.503 2.443 41.961 2.448 41.961 1.481 36.374 1.481 36.374 2.448 37.688 2.448 39.212 6.251 36.503 12.993 32.301 2.448 33.616 2.448 33.616 1.481 27.907 1.481 27.907 2.448 29.291 2.448 35.119 17.037 36.622 17.037 40.068 8.382 43.539 17.037 45.043 17.037 50.868 2.448"/>
    <path fill="#27A9E0" d="M55.0472154 5.92592593C51.9916589 5.92592593 49.779661 8.24855383 49.779661 11.4828749 49.779661 14.6865408 51.9916589 17.037037 55.0472154 17.037037 58.1031624 17.037037 60.3389831 14.6865408 60.3389831 11.4828749 60.3389831 8.24855383 58.1031624 5.92592593 55.0472154 5.92592593M55.0472154 15.8773156C53.6557344 15.8773156 52.6762692 14.0618916 52.6762692 11.4828749 52.6762692 8.87877666 53.6557344 7.06534332 55.0472154 7.06534332 56.4402586 7.06534332 57.4185522 8.87877666 57.4185522 11.4828749 57.4185522 14.0618916 56.4402586 15.8773156 55.0472154 15.8773156M68.6582655 5.92592593C68.0173543 5.92592593 67.4919401 6.23799195 66.6701486 7.12950003L66.1435599 7.68755201 66.1435599 5.97023395 65.1361899 5.97023395 61.8474576 6.84035195 61.8474576 7.55500989 63.4464079 7.55500989 63.4464079 15.3578064 62.0968532 15.3578064 62.0968532 16.2962963 67.7440763 16.2962963 67.7440763 15.3578064 66.1435599 15.3578064 66.1435599 9.18371189C66.7605887 8.40030012 67.1258729 8.11000614 67.5612384 8.11000614 67.835691 8.11000614 68.110535 8.26737603 68.7032899 8.69250392L70.1440678 6.75135393 69.4373819 6.14975786C69.2760774 5.99238797 68.9992758 5.92592593 68.6582655 5.92592593"/>
    <polygon fill="#F0F0F1" points="18.854 5.926 22.343 14.443 25.811 5.926 27.153 5.926 21.435 20 20.072 20 21.641 16.106 17.347 5.926"/>
    <path fill="#F0F0F1" d="M1.39685187,7.71117318 L1.43994451,7.75101398 C2.19203297,6.5076016 3.41692083,5.92592593 4.8137727,5.92592593 C6.51186649,5.92592593 7.84407941,6.80849449 8.31687881,8.13196791 C9.11205991,6.94888588 10.3584941,5.92592593 12.034635,5.92592593 C15.5592874,5.92592593 15.8389831,8.83430428 15.8389831,9.99765563 L15.8389831,16.2962963 L14.5494562,16.2962963 L14.5494562,9.79693388 C14.5494562,8.05190687 13.4745795,7.02894692 11.7126599,7.02894692 C9.58526584,7.02894692 8.61812073,8.6939129 8.61812073,10.4992703 L8.61812073,16.2962963 L7.32818738,16.2962963 L7.32818738,9.79693388 C7.32818738,8.05190687 6.25371721,7.02894692 4.49179753,7.02894692 C2.36359045,7.02894692 1.39685187,8.6939129 1.39685187,10.4992703 L1.39685187,16.2962963 L0.107325056,16.2962963 L0.107325056,8.49357059 C0.107325056,7.71117318 0.042686102,6.90866564 0,6.22681882 L1.33261945,6.22681882 L1.39685187,7.71117318 Z"/>
  </g>
</svg>
