<?xml version="1.0" encoding="UTF-8"?>
<svg width="141px" height="37px" viewBox="0 0 141 37" version="1.1" xmlns="http://www.w3.org/2000/svg" xmlns:xlink="http://www.w3.org/1999/xlink">
    <!-- Generator: sketchtool 52.6 (67491) - http://www.bohemiancoding.com/sketch -->
    <title>A8CB1ABE-9F1E-429D-936A-C3F1C1A9EE3F</title>
    <desc>Created with sketchtool.</desc>
    <g id="Dashboard" stroke="none" stroke-width="1" fill="none" fill-rule="evenodd">
        <g id="0-Dashboard---NoInvoiceManager2" transform="translate(-756.000000, -165.000000)" fill="#FFFFFE">
            <g id="page-content" transform="translate(24.000000, 88.000000)">
                <g id="rewards" transform="translate(712.000000, 51.000000)">
                    <g id="Group-11" transform="translate(20.000000, 26.000000)">
                        <g id="Group-4">
                            <polyline id="Fill-1" points="6.11475497 16.5781571 4.10566887 16.5781571 0 0.515342857 1.50675497 0.515342857 5.17637086 15.1321857 5.21928477 15.1321857 9.82895364 0.515342857 11.5538543 0.515342857 16.358543 15.1321857 16.4012185 15.1321857 20.0493775 0.515342857 21.4257219 0.515342857 17.2754702 16.5781571 15.3324238 16.5781571 10.6798411 2.00648571 10.6369272 2.00648571 6.11475497 16.5781571"></polyline>
                            <path d="M28.9184901,15.5766143 C32.8489272,15.5766143 34.4219603,12.0624714 34.4219603,8.54662857 C34.4219603,5.03078571 32.8489272,1.51664286 28.9184901,1.51664286 C24.988053,1.51664286 23.4150199,5.03078571 23.4150199,8.54662857 C23.4150199,12.0624714 24.988053,15.5766143 28.9184901,15.5766143 Z M28.9184901,16.9111143 C24.3982252,16.9111143 21.8868079,13.5519143 21.8868079,8.54662857 C21.8868079,3.54134286 24.3982252,0.182142857 28.9184901,0.182142857 C33.4389934,0.182142857 35.9520795,3.54134286 35.9520795,8.54662857 C35.9520795,13.5519143 33.4389934,16.9111143 28.9184901,16.9111143 Z" id="Fill-3"></path>
                        </g>
                        <path d="M43.4871834,7.04773136 C45.5111354,7.04773136 48.0192795,6.91371464 48.0192795,4.1876597 C48.0192795,1.10817798 45.16,1.32952329 43.6420961,1.32952329 L40.4297598,1.32952329 L40.4297598,7.04773136 L43.4871834,7.04773136 Z M40.4297598,16 L39,16 L39,0 L44.1911354,0 C45.5776638,0 46.7211354,0.089021938 47.9311354,0.841595984 C49.0313755,1.50708335 49.5607205,2.65880467 49.5607205,4.1876597 C49.5607205,5.91608836 48.3487991,7.15852497 46.5013755,7.62274535 L46.5013755,7.66798204 C48.5253275,7.99987905 48.9665284,9.37463903 49.1644323,11.2353911 C49.4490393,13.8288807 49.3625764,15.0241454 50,16 L48.3487991,16 C47.9762882,14.9370587 47.8879039,13.8054157 47.7997598,12.675466 C47.4702402,9.019277 47.2504803,8.37725465 44.3676638,8.37725465 L40.4297598,8.37725465 L40.4297598,16 Z" id="Fill-5"></path>
                        <polyline id="Fill-6" points="54 16 54 0 55.5185062 0 55.5185062 14.6704767 64 14.6704767 64 16 54 16"></polyline>
                        <path d="M71.4653742,14.6704767 C75.7609403,14.6704767 77.5188579,12.0334437 77.5188579,7.99987905 C77.5188579,3.27905535 74.8721626,1.19695801 70.5333937,1.32952329 L68.3753297,1.32952329 L68.3753297,14.6704767 L71.4653742,14.6704767 Z M71.1273753,0 C76.142142,0 79,2.70404137 79,7.99987905 C79,13.2957167 76.142142,16 71.1273753,16 L67,16 L67,0 L71.1273753,0 Z" id="Fill-7"></path>
                        <polyline id="Fill-8" points="89 16 89 0 99 0 99 1.32952329 90.5928612 1.32952329 90.5928612 6.980723 98.7051347 6.980723 98.7051347 8.31000438 90.5928612 8.31000438 90.5928612 16 89 16"></polyline>
                        <path d="M103.35351,0 L103.35351,10.138405 C103.459253,12.9830549 105.021066,14.697713 107.5,14.697713 C109.978934,14.697713 111.540519,12.9830549 111.644443,10.138405 L111.644443,0 L113,0 L113,10.1597346 C112.957475,13.5250622 111.145063,16 107.5,16 C103.854709,16 102.042752,13.5250622 102,10.1597346 L102,0 L103.35351,0" id="Fill-9"></path>
                        <polyline id="Fill-10" points="117 16 117 0 126.662421 0 126.662421 1.32952329 118.465382 1.32952329 118.465382 7.06950303 126.347217 7.06950303 126.347217 8.39902632 118.465382 8.39902632 118.465382 14.6704767 127 14.6704767 127 16 117 16"></polyline>
                        <polyline id="Fill-11" points="131 16 131 0 132.518235 0 132.518235 14.6704767 141 14.6704767 141 16 131 16"></polyline>
                        <path d="M4.41849865,27.9960438 L7.21030912,27.9960438 C7.61241372,27.9960438 8.41686675,27.9960438 8.97430222,27.5540933 C9.22131978,27.3765886 9.86849115,26.8225808 9.86849115,25.6945203 C9.86849115,24.6118623 9.3327581,24.101325 9.02014556,23.902085 C8.48270558,23.5275139 7.83553421,23.5275139 6.74041492,23.5275139 L4.41849865,23.5275139 L4.41849865,27.9960438 Z M1,21.0050151 L7.18836285,21.0050151 C8.97430222,20.9832798 10.7843825,20.9832798 12.0804322,22.0898465 C13.0841086,22.9515292 13.4864571,24.1247508 13.4864571,25.1641797 C13.4864571,28.1496397 10.8958208,28.8596585 10.1133141,29.0803923 C12.5486194,29.3013675 12.7276035,30.6721385 13.0182698,32.7524453 C13.2633366,34.6335121 13.398672,35.4065632 13.5101103,35.8502042 C13.6876313,36.558291 13.8227228,36.7338637 14,37 L10.1811037,37 C10.025529,36.11465 9.53393232,32.0660938 9.30910489,31.4468801 C8.99649235,30.5397949 8.14814676,30.5397949 7.56681423,30.5397949 L4.53018082,30.5397949 L4.53018082,37 L1,37 L1,21.0050151 Z" id="Fill-12"></path>
                        <polyline id="Fill-13" points="22 21 32.7561971 21 32.7561971 23.6119491 25.4447777 23.6119491 25.4447777 27.4170555 32.2887262 27.4170555 32.2887262 30.028763 25.4447777 30.028763 25.4447777 34.3448083 33 34.3448083 33 37 22 37 22 21"></polyline>
                        <polyline id="Fill-14" points="42.5916417 21 45.1067956 32.990021 48.2720569 21 52.200147 21 55.0512592 32.990021 57.6766839 21 61 21 56.8682765 37 53.0083093 37 50.0670201 24.76879 46.9015137 37 42.9516145 37 39 21 42.5916417 21"></polyline>
                        <path d="M75.3218521,30.9578747 L73.0225861,24.1424559 L70.5634607,30.9578747 L75.3218521,30.9578747 Z M75.2297509,21 L81,37 L77.4140787,37 L76.2192735,33.5480817 L69.6434532,33.5480817 L68.4017191,37 L65,37 L71.0001255,21 L75.2297509,21 Z" id="Fill-15"></path>
                        <path d="M90.4186784,27.9960438 L93.2101926,27.9960438 C93.6125335,27.9960438 94.4167276,27.9960438 94.9746403,27.5540933 C95.2211656,27.3765886 95.8685686,26.8225808 95.8685686,25.6945203 C95.8685686,24.6118623 95.3328456,24.101325 95.020239,23.902085 C94.4828091,23.5275139 93.8356498,23.5275139 92.7403072,23.5275139 L90.4186784,23.5275139 L90.4186784,27.9960438 Z M87,21.0050151 L93.1882468,21.0050151 C94.9746403,20.9832798 96.784199,20.9832798 98.0804682,22.0898465 C99.0841258,22.9515292 99.4864667,24.1247508 99.4864667,25.1641797 C99.4864667,28.1496397 96.8958791,28.8596585 96.1136308,29.0803923 C98.5486467,29.3013675 98.7276274,30.6721385 99.0185321,32.7524453 C99.2631066,34.6335121 99.3986832,35.4065632 99.5101195,35.8502042 C99.6876372,36.558291 99.8227262,36.7338637 100,37 L96.1811753,37 C96.0256035,36.11465 95.5340161,32.0660938 95.3091929,31.4468801 C94.9963424,30.5397949 94.1482565,30.5397949 93.5666911,30.5397949 L90.5303584,30.5397949 L90.5303584,37 L87,37 L87,21.0050151 Z" id="Fill-16"></path>
                        <path d="M110.341391,34.3593338 C110.701844,34.3811355 111.255529,34.4029372 111.638511,34.4029372 C113.042002,34.4029372 114.255744,34.2922332 115.213313,33.2932324 C116.510666,31.9403179 116.595902,29.5431037 116.595902,28.7674489 C116.595902,26.5046783 115.850609,24.4177744 113.787294,23.8187131 C113.106567,23.6188645 112.234234,23.5079182 110.341391,23.5970628 L110.341391,34.3593338 Z M107,21 L112.086058,21.0218017 C112.935863,21.0218017 115.531961,21.045299 117.382999,22.4655564 C119.319273,23.9512188 120,26.4809387 120,28.7674489 C120,33.6926874 117.468235,36.2679485 114.553489,36.8219531 C113.978669,36.9326571 113.339747,37 111.786687,37 L107,37 L107,21 Z" id="Fill-17"></path>
                        <path d="M130.492397,31.7225617 C130.492397,32.4467202 130.44895,34.6370789 133.389573,34.6370789 C135.246198,34.6370789 136.418779,33.7875049 136.418779,32.4887576 C136.418779,31.126838 135.423606,30.8934258 133.389573,30.4252079 C129.585807,29.5110682 127.508327,28.426224 127.508327,25.7655572 C127.508327,23.2340219 129.386676,21 133.831282,21 C135.490707,21 137.457639,21.3620792 138.651943,22.8090026 C139.558532,23.9147494 139.558532,25.1491632 139.558532,25.6594185 L136.263336,25.6594185 C136.219889,25.1282606 136.042481,23.319258 133.677287,23.319258 C132.084721,23.319258 131.046102,24.1497873 131.046102,25.403478 C131.046102,26.8294988 132.216993,27.0854393 134.517017,27.6374998 C137.280473,28.2766544 140,28.9991871 140,31.9991726 C140,34.7659781 137.613082,37 133.190442,37 C127.064929,37 127.021723,33.2129161 127,31.7225617 L130.492397,31.7225617" id="Fill-18"></path>
                    </g>
                </g>
            </g>
        </g>
    </g>
</svg>