<?xml version="1.0" encoding="UTF-8"?>
<svg width="50px" height="30px" viewBox="0 0 50 30" version="1.1" xmlns="http://www.w3.org/2000/svg" xmlns:xlink="http://www.w3.org/1999/xlink">
    <!-- Generator: Sketch 52.5 (67469) - http://www.bohemiancoding.com/sketch -->
    <title>av-card</title>
    <desc>Created with Sketch.</desc>
    <g id="Page-1" stroke="none" stroke-width="1" fill="none" fill-rule="evenodd">
        <g id="Letter-Copy-2" transform="translate(-511.000000, -271.000000)">
            <g id="Group-3" transform="translate(0.000000, -327.000000)">
                <g id="av-card" transform="translate(511.000000, 598.000000)">
                    <rect id="Rectangle" fill-opacity="0.01" fill="#FFFFFF" x="0" y="0" width="50" height="30" rx="2"></rect>
                    <g id="AVCARD-and-Card-Icon_White" transform="translate(0.000000, 8.000000)">
                        <g id="Group" transform="translate(18.000000, 1.000000)" fill="#FFFFFF">
                            <g transform="translate(5.730685, 7.541118)">
                                <path d="M0.319595913,3.41706898 L0.0551027437,3.41706898 C0.0661232924,3.26389003 0.0771438411,3.07536208 0.0771438411,2.89861713 L0.0771438411,0.106046968 L0.330616462,0.106046968 L0.330616462,1.46109156 L0.341637011,1.47287456 C0.495924693,1.20186564 0.793479509,1.06046968 1.08001378,1.06046968 C1.7192056,1.06046968 1.96165767,1.6731855 1.96165767,2.27411832 C1.96165767,2.85148515 1.7192056,3.49954995 1.09103432,3.49954995 C0.78245896,3.49954995 0.51796579,3.346371 0.341637011,3.07536208 L0.330616462,3.09892807 L0.319595913,3.41706898 Z M0.330616462,2.21520334 C0.330616462,2.73365518 0.506945242,3.22854104 1.06899323,3.22854104 C1.56491792,3.22854104 1.68614396,2.65117421 1.68614396,2.22698633 C1.68614396,1.79101547 1.52083572,1.28434662 1.02491103,1.28434662 C0.528986339,1.29612961 0.330616462,1.75566648 0.330616462,2.21520334 Z" id="Shape" fill-rule="nonzero"></path>
                                <polygon id="Path" points="2.42452072 1.11938467 3.15187694 3.05179609 3.8682126 1.11938467 4.14372632 1.11938467 2.95350706 4.31257671 2.66697279 4.31257671 2.99758925 3.42885198 2.10492481 1.11938467"></polygon>
                                <polygon id="Path" points="6.34783607 3.41706898 5.95109632 3.41706898 5.14659626 0.106046968 5.44415107 0.106046968 6.16048674 3.12249407 6.17150729 3.12249407 7.07519229 0.106046968 7.4168293 0.106046968 8.36459649 3.12249407 8.37561704 3.12249407 9.0919527 0.106046968 9.36746642 0.106046968 8.55194582 3.41706898 8.15520606 3.41706898 7.24050052 0.412404877 7.22947997 0.412404877"></polygon>
                                <path d="M11.428309,2.26233532 C11.428309,2.86326814 11.1087131,3.48776696 10.4254391,3.48776696 C9.74216508,3.48776696 9.42256917,2.87505114 9.42256917,2.26233532 C9.42256917,1.6614025 9.74216508,1.03690369 10.4254391,1.03690369 C11.1087131,1.03690369 11.428309,1.6614025 11.428309,2.26233532 Z M10.4254391,1.29612961 C9.90747331,1.29612961 9.69808288,1.83814745 9.69808288,2.26233532 C9.69808288,2.6865232 9.90747331,3.22854104 10.4254391,3.22854104 C10.9434049,3.22854104 11.1527953,2.6865232 11.1527953,2.26233532 C11.1527953,1.83814745 10.9434049,1.29612961 10.4254391,1.29612961 Z" id="Shape" fill-rule="nonzero"></path>
                                <path d="M12.2217885,3.41706898 L11.9683159,3.41706898 L11.9683159,1.62605351 C11.9683159,1.44930857 11.9572954,1.26078062 11.9462748,1.10760167 L12.210768,1.10760167 L12.2217885,1.44930857 L12.2328091,1.44930857 C12.3099529,1.21364864 12.5083228,1.04868669 12.7177132,1.03690369 C12.8058776,1.03690369 12.894042,1.03690369 12.9711859,1.03690369 L12.9711859,1.30791261 C12.9160831,1.30791261 12.8609804,1.28434662 12.8168982,1.28434662 C12.431179,1.28434662 12.2328091,1.57892153 12.2217885,2.0148924 L12.2217885,3.41706898 Z" id="Path"></path>
                                <polygon id="Path" points="13.6544599 3.41706898 13.4009873 3.41706898 13.4009873 0.106046968 13.6544599 0.106046968"></polygon>
                                <path d="M15.8365285,3.07536208 L15.825508,3.05179609 C15.6491792,3.32280501 15.384686,3.47598396 15.0871312,3.47598396 C14.4479394,3.47598396 14.2054873,2.82791916 14.2054873,2.25055233 C14.2054873,1.64961951 14.4479394,1.03690369 15.0871312,1.03690369 C15.3736655,1.03690369 15.6712203,1.17829965 15.825508,1.44930857 L15.8365285,1.43752557 L15.8365285,0.0824809754 L16.0900011,0.0824809754 L16.0900011,2.87505114 C16.0900011,3.05179609 16.1010217,3.24032403 16.1120422,3.39350299 L15.8475491,3.39350299 L15.8365285,3.07536208 Z M15.1312134,1.29612961 C14.6463093,1.29612961 14.481001,1.77923247 14.481001,2.22698633 C14.481001,2.65117421 14.6022271,3.24032403 15.0871312,3.24032403 C15.6491792,3.24032403 15.825508,2.74543818 15.825508,2.21520334 C15.825508,1.74388348 15.6271381,1.29612961 15.1312134,1.29612961 Z" id="Shape" fill-rule="nonzero"></path>
                                <polygon id="Path" points="17.9965561 3.41706898 17.9965561 0.106046968 19.7488233 0.106046968 19.7488233 0.377055887 18.2720698 0.377055887 18.2720698 1.54357254 19.6937206 1.54357254 19.6937206 1.81458146 18.2720698 1.81458146 18.2720698 3.41706898"></polygon>
                                <path d="M21.5341522,1.11938467 L21.7876248,1.11938467 L21.7876248,2.91040013 C21.7876248,3.08714508 21.7986454,3.27567302 21.8096659,3.42885198 L21.5451728,3.42885198 L21.5341522,3.08714508 L21.5231317,3.07536208 C21.368844,3.358154 21.1263919,3.48776696 20.8508782,3.48776696 C20.1455631,3.48776696 20.0904603,2.81613616 20.0904603,2.55691024 L20.0904603,1.11938467 L20.343933,1.11938467 L20.343933,2.60404222 C20.343933,3.0046641 20.5643439,3.24032403 20.9059809,3.24032403 C21.3357823,3.24032403 21.5231317,2.86326814 21.5231317,2.45086327 L21.5231317,1.11938467 L21.5341522,1.11938467 Z" id="Path"></path>
                                <path d="M22.6251865,2.3330333 C22.6362071,2.82791916 22.8455975,3.24032403 23.3745839,3.24032403 C23.6831592,3.24032403 23.9366318,3.0046641 24.0027551,2.6865232 L24.2782689,2.6865232 C24.1460223,3.24032403 23.8264264,3.48776696 23.3084606,3.48776696 C22.6582482,3.48776696 22.3606934,2.89861713 22.3606934,2.26233532 C22.3606934,1.63783651 22.6802893,1.03690369 23.3194811,1.03690369 C24.0468373,1.03690369 24.30031,1.60248752 24.30031,2.32125031 L22.6251865,2.32125031 L22.6251865,2.3330333 Z M24.0137757,2.07380738 C23.980714,1.62605351 23.7603031,1.29612961 23.3084606,1.29612961 C22.8896797,1.29612961 22.6582482,1.6731855 22.6251865,2.07380738 L24.0137757,2.07380738 Z" id="Shape" fill-rule="nonzero"></path>
                                <polygon id="Path" points="25.1268511 3.41706898 24.8733785 3.41706898 24.8733785 0.106046968 25.1268511 0.106046968"></polygon>
                            </g>
                            <g>
                                <path d="M3.47147285,0.117829965 L5.40006888,6.06824319 L4.19882907,6.06824319 L3.80208931,4.78389657 L1.59797957,4.78389657 L1.17919871,6.06824319 L0.0440821949,6.06824319 L2.06084261,0.117829965 L3.47147285,0.117829965 Z M3.5045345,3.81769086 L2.73309609,1.28434662 L1.90655493,3.81769086 L3.5045345,3.81769086 Z" id="Shape" fill-rule="nonzero"></path>
                                <polygon id="Path" points="6.19354839 0.141395958 7.64826082 4.80746256 9.1139938 0.141395958 10.2931925 0.141395958 8.24337045 6.05646019 6.9429457 6.05646019 4.89312364 0.141395958"></polygon>
                                <path d="M13.5883366,2.05024139 C13.5662955,1.84993045 13.5001722,1.0015547 12.6846516,1.0015547 C11.8030077,1.0015547 11.428309,1.99132641 11.428309,3.21675804 C11.428309,3.57024793 11.428309,5.25521643 12.5854667,5.25521643 C13.0813913,5.25521643 13.5662955,4.91350953 13.5883366,4.12404877 L14.8446791,4.12404877 C14.822638,4.47753866 14.7895764,5.0313395 14.3487544,5.52622535 C13.8528298,6.06824319 13.235679,6.19785615 12.7287338,6.19785615 C10.8111583,6.19785615 10.1940076,4.6896326 10.1940076,3.21675804 C10.1940076,1.3314786 11.1748364,0.0824809754 12.7397543,0.0824809754 C13.9520147,0.0824809754 14.8116175,0.87194174 14.8116175,2.05024139 L13.5883366,2.05024139 Z" id="Path"></path>
                                <path d="M18.5255424,0.117829965 L20.4541384,6.06824319 L19.2528986,6.06824319 L18.8561589,4.78389657 L16.6520491,4.78389657 L16.2332683,6.06824319 L15.0981518,6.06824319 L17.1038916,0.117829965 L18.5255424,0.117829965 Z M18.5586041,3.81769086 L17.7871657,1.28434662 L16.9606245,3.81769086 L18.5586041,3.81769086 Z" id="Shape" fill-rule="nonzero"></path>
                                <path d="M21.0823097,0.117829965 L23.2092756,0.117829965 C23.8264264,0.106046968 24.4435771,0.106046968 24.8954196,0.518451845 C25.2370566,0.83659275 25.3803237,1.27256362 25.3803237,1.6614025 C25.3803237,2.76900417 24.4876593,3.04001309 24.2231661,3.12249407 C25.0607278,3.20497504 25.1268511,3.71164389 25.226036,4.48932166 C25.3142004,5.18451845 25.3582826,5.47909336 25.3913443,5.64405531 C25.4574676,5.90328124 25.5015498,5.97397922 25.5566525,6.06824319 L24.2452072,6.06824319 C24.1901045,5.73831929 24.0247962,4.23009574 23.9476524,4.0062188 C23.8374469,3.66451191 23.5509126,3.66451191 23.3525428,3.66451191 L22.3055906,3.66451191 L22.3055906,6.06824319 L21.0933303,6.06824319 L21.0933303,0.117829965 L21.0823097,0.117829965 Z M22.2504879,2.71008919 L23.2092756,2.71008919 C23.3525428,2.71008919 23.6280565,2.71008919 23.8154058,2.54512724 C23.9035702,2.47442926 24.1239812,2.27411832 24.1239812,1.84993045 C24.1239812,1.44930857 23.9366318,1.26078062 23.8264264,1.17829965 C23.639077,1.03690369 23.4186661,1.03690369 23.0439674,1.03690369 L22.2394673,1.03690369 L22.2394673,2.71008919 L22.2504879,2.71008919 Z" id="Shape" fill-rule="nonzero"></path>
                                <path d="M26.2509471,0.129612961 L28.0913787,0.141395958 C28.3999541,0.141395958 29.3367007,0.153178954 30.0089542,0.671630799 C30.7142693,1.22543163 30.9567214,2.15628836 30.9567214,3.0046641 C30.9567214,4.83102856 30.0420158,5.78545127 28.9840432,5.98576221 C28.7746527,6.0211112 28.5432212,6.05646019 27.9811732,6.05646019 L26.2509471,6.05646019 L26.2509471,0.129612961 Z M27.4521869,5.07847148 C27.5844335,5.09025448 27.7828034,5.09025448 27.9260705,5.09025448 C28.4330157,5.09025448 28.8738377,5.05490549 29.2154747,4.6778496 C29.6893583,4.17118075 29.7113994,3.28745602 29.7113994,3.0046641 C29.7113994,2.16807135 29.4469062,1.39039358 28.6975089,1.16651665 C28.4550568,1.09581867 28.1354609,1.04868669 27.4521869,1.08403568 L27.4521869,5.07847148 Z" id="Shape" fill-rule="nonzero"></path>
                            </g>
                        </g>
                        <g id="Group">
                            <g>
                                <path d="M13.9280576,0.107581019 L2.0028777,0.107581019 C0.909352518,0.107581019 0.0230215827,1.19534465 0.0230215827,2.52217721 L0.0230215827,10.3994985 C0.0230215827,11.726331 0.920863309,12.8140947 2.0028777,12.8140947 L2.33669065,12.8140947 C3.13093525,12.0610275 3.83309353,11.3318673 4.45467626,10.6505208 C4.22446043,10.495126 4.0057554,10.3397312 3.79856115,10.1843364 C3.89064748,10.064802 3.9942446,9.94526749 4.08633094,9.82573302 C4.38561151,9.87354681 4.70791367,9.93331404 5.04172662,9.98112783 C6.43453237,8.34350566 7.32086331,7.00471965 7.8618705,6.27555941 C7.1942446,5.83328189 6.52661871,5.37905093 5.8705036,4.88895962 C6.02014388,4.63793724 6.16978417,4.37496142 6.31942446,4.1119856 C7.38992806,4.20761317 8.44892086,4.29128729 9.51942446,4.38691487 C10.0719424,3.66970808 10.647482,2.92859439 11.2805755,2.12771348 C11.5913669,1.75715664 12.3395683,1.12362397 12.7539568,1.08776363 C13.0071942,1.06385674 12.9956835,1.05190329 12.9956835,1.37464635 C12.9956835,1.88864455 12.4661871,2.83296682 12.1553957,3.21547711 C11.2460432,4.30324074 10.4517986,5.30733025 9.64604317,6.39509388 C8.50647482,7.92513503 7.44748201,9.13243313 6.11223022,10.387545 C5.23741007,11.2123328 4.31654676,12.0251672 3.36115108,12.8140947 L13.9280576,12.8140947 C15.0215827,12.8140947 15.9079137,11.726331 15.9079137,10.3994985 L15.9079137,2.52217721 C15.9079137,1.19534465 15.0215827,0.107581019 13.9280576,0.107581019 Z M9.83021583,8.65429527 L9.05899281,9.3834555 L9.01294964,7.57848508 L10.5438849,5.54639918 L9.83021583,8.65429527 Z" id="Shape"></path>
                                <g transform="translate(2.302158, 0.956276)" fill="#FFFFFF" id="Path">
                                    <path d="M10.4517986,0.119534465 C10.0374101,0.155394805 9.28920863,0.788927469 8.97841727,1.15948431 C8.34532374,1.96036523 7.76978417,2.70147891 7.21726619,3.4186857 C6.14676259,3.32305813 5.08776978,3.239384 4.01726619,3.14375643 C3.8676259,3.40673225 3.71798561,3.66970808 3.56834532,3.92073045 C4.22446043,4.39886831 4.89208633,4.85309928 5.55971223,5.30733025 C5.00719424,6.03649048 4.1323741,7.37527649 2.73956835,9.01289866 C2.4057554,8.96508488 2.09496403,8.91727109 1.78417266,8.85750386 C1.69208633,8.97703832 1.58848921,9.09657279 1.49640288,9.21610725 C1.70359712,9.37150206 1.92230216,9.52689686 2.15251799,9.68229167 C1.54244604,10.3636381 0.84028777,11.0927984 0.0345323741,11.8458655 L1.04748201,11.8458655 C2.0028777,11.056938 2.9352518,10.2441037 3.79856115,9.41931584 C5.13381295,8.15225051 6.19280576,6.95690586 7.3323741,5.42686471 C8.1381295,4.33910108 8.94388489,3.33501157 9.84172662,2.24724794 C10.152518,1.86473765 10.6820144,0.920415381 10.6820144,0.406417181 C10.6935252,0.071720679 10.705036,0.095627572 10.4517986,0.119534465 Z"></path>
                                    <polygon points="6.75683453 8.42717978 7.52805755 7.69801955 8.24172662 4.59012346 6.71079137 6.63416281"></polygon>
                                </g>
                            </g>
                            <path d="M13.7669065,0.561811986 C14.7107914,0.561811986 15.4705036,1.3626929 15.4705036,2.33092207 L15.4705036,10.5788002 C15.4705036,11.5589828 14.6992806,12.3479102 13.7669065,12.3479102 L2.16402878,12.3479102 C1.22014388,12.3479102 0.460431655,11.5470293 0.460431655,10.5788002 L0.460431655,2.33092207 C0.460431655,1.35073945 1.23165468,0.561811986 2.16402878,0.561811986 L13.7669065,0.561811986 Z M13.7669065,0.107581019 L2.16402878,0.107581019 C0.978417266,0.107581019 0.0115107914,1.11167052 0.0115107914,2.34287551 L0.0115107914,10.5907536 C0.0115107914,11.8219586 0.978417266,12.8260481 2.16402878,12.8260481 L13.7669065,12.8260481 C14.952518,12.8260481 15.9194245,11.8219586 15.9194245,10.5907536 L15.9194245,2.34287551 C15.9079137,1.11167052 14.9410072,0.107581019 13.7669065,0.107581019 Z" id="Shape" fill="#FFFFFF" fill-rule="nonzero"></path>
                        </g>
                    </g>
                </g>
            </g>
        </g>
    </g>
</svg>