<svg id="Layer_1" data-name="Layer 1" xmlns="http://www.w3.org/2000/svg" viewBox="0 0 100 24"><defs><style>.cls-1{fill:#fff;}.cls-2{fill:none;}</style></defs><title>All Card Bugs 133X24_Black</title><path class="cls-1" d="M48.25,21.94H47.7c0-.3,0-.65,0-1V15.59h.52v2.58l0,0a1.78,1.78,0,0,1,1.52-.8c1.31,0,1.81,1.18,1.81,2.33s-.5,2.36-1.79,2.36a1.83,1.83,0,0,1-1.54-.82l0,0Zm0-2.3c0,1,.36,1.95,1.51,1.95s1.27-1.1,1.27-1.92-.35-1.8-1.35-1.8S48.27,18.75,48.27,19.64Z"/><path class="cls-1" d="M52.56,17.52l1.49,3.7,1.48-3.7h.58l-2.44,6.11h-.59l.67-1.69-1.83-4.42Z"/><path class="cls-1" d="M60.6,21.94h-.81l-1.66-6.35h.61l1.48,5.78h0l1.86-5.78h.69l1.94,5.78h0l1.47-5.78h.55L65.1,21.94h-.78l-1.88-5.76h0Z"/><path class="cls-1" d="M71,19.73a2.08,2.08,0,1,1-4.12,0,2.08,2.08,0,1,1,4.12,0ZM69,17.87c-1.07,0-1.49,1-1.49,1.86s.42,1.86,1.49,1.86,1.49-1,1.49-1.86S70,17.87,69,17.87Z"/><path class="cls-1" d="M72.63,21.94h-.52V18.52c0-.35,0-.7,0-1h.55l0,.65h0a1.14,1.14,0,0,1,1-.78,4.51,4.51,0,0,1,.52,0v.51c-.1,0-.22,0-.32,0-.79,0-1.2.57-1.22,1.41Z"/><path class="cls-1" d="M75.58,21.94h-.53V15.59h.53Z"/><path class="cls-1" d="M80,21.29l0,0a1.8,1.8,0,0,1-1.51.82c-1.31,0-1.81-1.26-1.81-2.36s.5-2.33,1.81-2.33a1.75,1.75,0,0,1,1.51.8l0,0V15.59h.53V21c0,.34,0,.69,0,1h-.54ZM78.6,17.87c-1,0-1.33.94-1.33,1.78s.24,1.94,1.25,1.94,1.5-1,1.5-2S79.63,17.87,78.6,17.87Z"/><path class="cls-1" d="M84.48,21.94V15.59h3.59v.52h-3v2.25H88v.53H85.05v3.05Z"/><path class="cls-1" d="M91.72,17.52h.52V21c0,.34,0,.69.05,1h-.55l0-.65,0,0a1.52,1.52,0,0,1-1.38.81,1.56,1.56,0,0,1-1.56-1.79V17.52h.53v2.86a1.09,1.09,0,0,0,1.16,1.21c.87,0,1.27-.73,1.27-1.52Z"/><path class="cls-1" d="M94,19.86c0,.94.45,1.73,1.54,1.73a1.31,1.31,0,0,0,1.27-1.06h.56a1.87,1.87,0,0,1-2,1.55c-1.32,0-1.94-1.14-1.94-2.35a2.09,2.09,0,0,1,2-2.34c1.48,0,2,1.08,2,2.47Zm2.85-.49a1.42,1.42,0,0,0-1.44-1.5A1.47,1.47,0,0,0,94,19.37Z"/><path class="cls-1" d="M99.09,21.94h-.53V15.59h.53Z"/><path class="cls-1" d="M43,1.15l4,11.4H44.46l-.82-2.46H39.13l-.85,2.46H36l4.11-11.4ZM43,8.24,41.45,3.39,39.76,8.24Z"/><path class="cls-1" d="M48.53,1.2l3,8.94,3-8.94h2.41l-4.2,11.35H50.06L45.87,1.2Z"/><path class="cls-1" d="M63.7,4.87c-.05-.39-.19-2-1.84-2-1.82,0-2.57,1.89-2.57,4.24,0,.68,0,3.91,2.38,3.91a2,2,0,0,0,2-2.16h2.57a3.88,3.88,0,0,1-1,2.68,4.47,4.47,0,0,1-3.33,1.27c-3.92,0-5.2-2.9-5.2-5.72,0-3.61,2-6,5.22-6,2.49,0,4.24,1.51,4.24,3.78Z"/><path class="cls-1" d="M73.81,1.15l4,11.4H75.31l-.82-2.46H70l-.85,2.46H66.79l4.12-11.4Zm.06,7.09L72.29,3.39,70.61,8.24Z"/><path class="cls-1" d="M79.05,1.15h4.36a5.07,5.07,0,0,1,3.45.77,2.9,2.9,0,0,1,1,2.19A2.84,2.84,0,0,1,85.48,6.9c1.72.16,1.84,1.14,2,2.62a22.25,22.25,0,0,0,.34,2.21,2.08,2.08,0,0,0,.35.82h-2.7c-.11-.63-.45-3.52-.61-4-.22-.65-.82-.65-1.23-.65H81.54v4.61H79.05Zm2.41,5h2a2,2,0,0,0,1.24-.31,1.57,1.57,0,0,0,.63-1.33,1.39,1.39,0,0,0-.6-1.27A2.63,2.63,0,0,0,83.1,3H81.46Z"/><path class="cls-1" d="M89.64,1.18l3.77,0a6.89,6.89,0,0,1,3.93,1A5.46,5.46,0,0,1,99.27,6.7c0,3.5-1.87,5.33-4,5.72a10.48,10.48,0,0,1-2,.13H89.64Zm2.48,9.49c.27,0,.68,0,1,0a3.43,3.43,0,0,0,2.65-.79,4.83,4.83,0,0,0,1-3.21c0-1.61-.55-3.09-2.08-3.52A7.78,7.78,0,0,0,92.12,3Z"/><path class="cls-2" d="M27.45,0H4.05C1.91,0,.15,2.05.15,4.56V19.44C.15,22,1.91,24,4.05,24h.64c1.57-1.42,2.95-2.79,4.15-4.09L7.56,19l.57-.68c.6.1,1.22.2,1.87.29,2.74-3.1,4.47-5.62,5.54-7-1.32-.85-2.63-1.71-3.91-2.61l.87-1.48,6.28.51C19.87,6.71,21,5.31,22.24,3.8a6.52,6.52,0,0,1,2.89-2c.51-.05.47-.07.47.55A7.6,7.6,0,0,1,24,5.85c-1.78,2.06-3.35,4-4.93,6a57.44,57.44,0,0,1-6.93,7.55C10.38,21,8.56,22.52,6.68,24H27.45c2.14,0,3.89-2.05,3.89-4.56V4.56C31.34,2.05,29.59,0,27.45,0Zm-8,16.16-1.51,1.38-.09-3.4,3-3.85Z"/><path class="cls-1" d="M25.13,1.83a6.52,6.52,0,0,0-2.89,2C21,5.31,19.87,6.71,18.78,8.06L12.5,7.55,11.63,9c1.28.9,2.59,1.76,3.91,2.61-1.07,1.38-2.8,3.9-5.54,7-.65-.09-1.27-.19-1.87-.29L7.56,19l1.28.88c-1.2,1.3-2.58,2.67-4.15,4.09h2c1.88-1.48,3.7-3,5.41-4.58A57.44,57.44,0,0,0,19,11.87c1.58-2,3.15-4,4.93-6A7.6,7.6,0,0,0,25.6,2.38C25.6,1.76,25.64,1.78,25.13,1.83Z"/><polygon class="cls-1" points="17.89 17.54 19.4 16.16 20.8 10.29 17.8 14.14 17.89 17.54"/><path class="cls-1" d="M27.39,1a3,3,0,0,1,3,3v16.1a3,3,0,0,1-3,3H4.1a3,3,0,0,1-3-3V4a3,3,0,0,1,3-3H27.39m0-1H4.1A4,4,0,0,0,.15,4v16.1A4,4,0,0,0,4.1,24H27.39a4,4,0,0,0,3.95-3.95V4A4,4,0,0,0,27.39,0Z"/></svg>