<?xml version="1.0" encoding="UTF-8"?>
<svg width="71px" height="19px" viewBox="0 0 71 19" version="1.1" xmlns="http://www.w3.org/2000/svg" xmlns:xlink="http://www.w3.org/1999/xlink">
    <!-- Generator: Sketch 57.1 (83088) - https://sketch.com -->
    <title>Group 10</title>
    <desc>Created with Sketch.</desc>
    <g id="Card-Bug-Exploration" stroke="none" stroke-width="1" fill="none" fill-rule="evenodd">
        <g id="Group-11" transform="translate(-356.000000, -867.000000)" fill="#FFFFFF" fill-rule="nonzero">
            <g id="Group-10" transform="translate(356.000000, 867.000000)">
                <g id="Group" transform="translate(35.222959, 11.957565)">
                    <path d="M0.447434278,4.78389657 L0.0771438412,4.78389657 C0.0925726094,4.56944604 0.108001378,4.30550691 0.108001378,4.05806398 L0.108001378,0.148465755 L0.462863047,0.148465755 L0.462863047,2.04552818 L0.478291815,2.06202438 C0.69429457,1.6826119 1.11087131,1.48465755 1.51201929,1.48465755 C2.40688784,1.48465755 2.74632074,2.3424597 2.74632074,3.18376565 C2.74632074,3.99207921 2.40688784,4.89936993 1.52744805,4.89936993 C1.09544254,4.89936993 0.725152106,4.6849194 0.478291815,4.30550691 L0.462863047,4.3384993 L0.447434278,4.78389657 Z M0.462863047,3.10128468 C0.462863047,3.82711725 0.709723339,4.51995746 1.49659052,4.51995746 C2.19088509,4.51995746 2.36060154,3.71164389 2.36060154,3.11778086 C2.36060154,2.50742166 2.12917001,1.79808527 1.43487544,1.79808527 C0.740580875,1.81458145 0.462863047,2.45793307 0.462863047,3.10128468 Z" id="Shape"></path>
                    <polygon id="Path" points="3.39432901 1.56713854 4.41262772 4.27251453 5.41549764 1.56713854 5.80121685 1.56713854 4.13490988 6.03760739 3.73376191 6.03760739 4.19662495 4.80039277 2.94689473 1.56713854"></polygon>
                    <polygon id="Path" points="8.8869705 4.78389657 8.33153485 4.78389657 7.20523476 0.148465755 7.6218115 0.148465755 8.62468144 4.3714917 8.64011021 4.3714917 9.90526921 0.148465755 10.383561 0.148465755 11.7104351 4.3714917 11.7258639 4.3714917 12.7287338 0.148465755 13.114453 0.148465755 11.9727241 4.78389657 11.4172885 4.78389657 10.1367007 0.577366828 10.121272 0.577366828"></polygon>
                    <path d="M15.9996326,3.16726945 C15.9996326,4.0085754 15.5521983,4.88287374 14.5956147,4.88287374 C13.6390311,4.88287374 13.1915968,4.0250716 13.1915968,3.16726945 C13.1915968,2.3259635 13.6390311,1.45166517 14.5956147,1.45166517 C15.5521983,1.45166517 15.9996326,2.3259635 15.9996326,3.16726945 Z M14.5956147,1.81458145 C13.8704626,1.81458145 13.577316,2.57340643 13.577316,3.16726945 C13.577316,3.76113248 13.8704626,4.51995746 14.5956147,4.51995746 C15.3207669,4.51995746 15.6139134,3.76113248 15.6139134,3.16726945 C15.6139134,2.57340643 15.3207669,1.81458145 14.5956147,1.81458145 Z" id="Shape"></path>
                    <path d="M17.1105039,4.78389657 L16.7556423,4.78389657 L16.7556423,2.27647491 C16.7556423,2.029032 16.7402136,1.76509287 16.7247847,1.55064234 L17.0950752,1.55064234 L17.1105039,2.029032 L17.1259327,2.029032 C17.2339341,1.6991081 17.5116519,1.46816137 17.8047985,1.45166517 C17.9282286,1.45166517 18.0516588,1.45166517 18.1596603,1.45166517 L18.1596603,1.83107765 C18.0825163,1.83107765 18.0053726,1.79808527 17.9436575,1.79808527 C17.4036506,1.79808527 17.1259327,2.21049014 17.1105039,2.82084936 L17.1105039,4.78389657 Z" id="Path"></path>
                    <polygon id="Path" points="19.1162439 4.78389657 18.7613822 4.78389657 18.7613822 0.148465755 19.1162439 0.148465755"></polygon>
                    <path d="M22.1711399,4.30550691 L22.1557112,4.27251453 C21.9088509,4.65192701 21.5385604,4.86637754 21.1219837,4.86637754 C20.2271152,4.86637754 19.8876822,3.95908682 19.8876822,3.15077326 C19.8876822,2.30946731 20.2271152,1.45166517 21.1219837,1.45166517 C21.5231317,1.45166517 21.9397084,1.64961951 22.1557112,2.029032 L22.1711399,2.0125358 L22.1711399,0.115473366 L22.5260015,0.115473366 L22.5260015,4.0250716 C22.5260015,4.27251453 22.5414304,4.53645364 22.5568591,4.75090419 L22.1865687,4.75090419 L22.1711399,4.30550691 Z M21.1836988,1.81458145 C20.504833,1.81458145 20.2734014,2.49092546 20.2734014,3.11778086 C20.2734014,3.71164389 20.4431179,4.53645364 21.1219837,4.53645364 C21.9088509,4.53645364 22.1557112,3.84361345 22.1557112,3.10128468 C22.1557112,2.44143687 21.8779933,1.81458145 21.1836988,1.81458145 Z" id="Shape"></path>
                    <polygon id="Path" points="25.1951785 4.78389657 25.1951785 0.148465755 27.6483526 0.148465755 27.6483526 0.527878242 25.5808977 0.527878242 25.5808977 2.16100156 27.5712088 2.16100156 27.5712088 2.54041404 25.5808977 2.54041404 25.5808977 4.78389657"></polygon>
                    <path d="M30.1478131,1.56713854 L30.5026747,1.56713854 L30.5026747,4.07456018 C30.5026747,4.32200311 30.5181036,4.58594223 30.5335323,4.80039277 L30.1632419,4.80039277 L30.1478131,4.32200311 L30.1323844,4.30550691 C29.9163816,4.7014156 29.5769487,4.88287374 29.1912295,4.88287374 C28.2037883,4.88287374 28.1266444,3.94259062 28.1266444,3.57967434 L28.1266444,1.56713854 L28.4815062,1.56713854 L28.4815062,3.64565911 C28.4815062,4.20652974 28.7900815,4.53645364 29.2683733,4.53645364 C29.8700952,4.53645364 30.1323844,4.0085754 30.1323844,3.43120858 L30.1323844,1.56713854 L30.1478131,1.56713854 Z" id="Path"></path>
                    <path d="M31.6752611,3.26624662 C31.6906899,3.95908682 31.9838365,4.53645364 32.7244175,4.53645364 C33.1564229,4.53645364 33.5112845,4.20652974 33.6038571,3.76113248 L33.9895765,3.76113248 C33.8044312,4.53645364 33.356997,4.88287374 32.6318448,4.88287374 C31.7215475,4.88287374 31.3049708,4.05806398 31.3049708,3.16726945 C31.3049708,2.29297111 31.752405,1.45166517 32.6472735,1.45166517 C33.6655722,1.45166517 34.020434,2.24348253 34.020434,3.24975043 L31.6752611,3.24975043 L31.6752611,3.26624662 Z M33.619286,2.90333033 C33.5729996,2.27647491 33.2644243,1.81458145 32.6318448,1.81458145 C32.0455516,1.81458145 31.7215475,2.3424597 31.6752611,2.90333033 L33.619286,2.90333033 Z" id="Shape"></path>
                    <polygon id="Path" points="35.1775915 4.78389657 34.8227299 4.78389657 34.8227299 0.148465755 35.1775915 0.148465755"></polygon>
                </g>
                <g id="Group" transform="translate(27.200000, 1.400000)">
                    <path d="M4.86006199,0.164961951 L7.56009643,8.49554047 L5.8783607,8.49554047 L5.32292503,6.6974552 L2.2371714,6.6974552 L1.65087819,8.49554047 L0.0617150729,8.49554047 L2.88517965,0.164961951 L4.86006199,0.164961951 Z M4.9063483,5.3447672 L3.82633453,1.79808527 L2.6691769,5.3447672 L4.9063483,5.3447672 Z" id="Shape"></path>
                    <polygon id="Path" points="8.67096775 0.197954341 10.7075651 6.73044758 12.7595913 0.197954341 14.4104695 0.197954341 11.5407186 8.47904427 9.72012398 8.47904427 6.8503731 0.197954341"></polygon>
                    <path d="M19.0236712,2.87033795 C18.9928137,2.58990263 18.9002411,1.40217658 17.7585122,1.40217658 C16.5242108,1.40217658 15.9996326,2.78785697 15.9996326,4.50346126 C15.9996326,4.9983471 15.9996326,7.357303 17.6196534,7.357303 C18.3139478,7.357303 18.9928137,6.87891334 19.0236712,5.77366828 L20.7825507,5.77366828 C20.7516932,6.26855412 20.705407,7.0438753 20.0882562,7.73671549 C19.3939617,8.49554047 18.5299506,8.67699861 17.8202273,8.67699861 C15.1356216,8.67699861 14.2716106,6.56548564 14.2716106,4.50346126 C14.2716106,1.86407004 15.644771,0.115473366 17.835656,0.115473366 C19.5328206,0.115473366 20.7362645,1.22071844 20.7362645,2.87033795 L19.0236712,2.87033795 Z" id="Path"></path>
                    <path d="M25.9357594,0.164961951 L28.6357938,8.49554047 L26.954058,8.49554047 L26.3986225,6.6974552 L23.3128687,6.6974552 L22.7265756,8.49554047 L21.1374125,8.49554047 L23.9454482,0.164961951 L25.9357594,0.164961951 Z M25.9820457,5.3447672 L24.902032,1.79808527 L23.7448743,5.3447672 L25.9820457,5.3447672 Z" id="Shape"></path>
                    <path d="M29.5152336,0.164961951 L32.4929858,0.164961951 C33.356997,0.148465755 34.2210079,0.148465755 34.8535874,0.725832583 C35.3318792,1.17122985 35.5324532,1.78158907 35.5324532,2.3259635 C35.5324532,3.87660584 34.282723,4.25601833 33.9124325,4.3714917 C35.0850189,4.48696506 35.1775915,5.19630145 35.3164504,6.28505032 C35.4398806,7.25832583 35.5015956,7.6707307 35.547882,7.90167743 C35.6404546,8.26459374 35.7021697,8.36357091 35.7793135,8.49554047 L33.9432901,8.49554047 C33.8661463,8.03364701 33.6347147,5.92213404 33.5267134,5.60870632 C33.3724257,5.13031667 32.9712776,5.13031667 32.6935599,5.13031667 L31.2278268,5.13031667 L31.2278268,8.49554047 L29.5306624,8.49554047 L29.5306624,0.164961951 L29.5152336,0.164961951 Z M31.1506831,3.79412487 L32.4929858,3.79412487 C32.6935599,3.79412487 33.0792791,3.79412487 33.3415681,3.56317814 C33.4649983,3.46420096 33.7735737,3.18376565 33.7735737,2.58990263 C33.7735737,2.029032 33.5112845,1.76509287 33.356997,1.64961951 C33.0947078,1.45166517 32.7861325,1.45166517 32.2615544,1.45166517 L31.1352542,1.45166517 L31.1352542,3.79412487 L31.1506831,3.79412487 Z" id="Shape"></path>
                    <path d="M36.7513259,0.181458145 L39.3279302,0.197954341 C39.7599357,0.197954341 41.071381,0.214450536 42.0125359,0.940283119 C42.999977,1.71560428 43.33941,3.0188037 43.33941,4.20652974 C43.33941,6.76343998 42.0588221,8.09963178 40.5776605,8.38006709 C40.2845138,8.42955568 39.9605097,8.47904427 39.1736425,8.47904427 L36.7513259,8.47904427 L36.7513259,0.181458145 Z M38.4330617,7.10986007 C38.6182069,7.12635627 38.8959248,7.12635627 39.0964987,7.12635627 C39.806222,7.12635627 40.4233728,7.07686769 40.9016646,6.54898944 C41.5651016,5.83965305 41.5959592,4.60243843 41.5959592,4.20652974 C41.5959592,3.03529989 41.2256687,1.94655101 40.1765125,1.63312331 C39.8370795,1.53414614 39.3896453,1.46816137 38.4330617,1.51764995 L38.4330617,7.10986007 Z" id="Shape"></path>
                </g>
                <g id="Group">
                    <g id="Group-9" transform="translate(-0.000000, 0.800000)">
                        <g id="Group" transform="translate(3.000000, 0.200000)">
                            <g id="Path" transform="translate(0.223021, 0.800000)">
                                <path d="M14.632518,0.167348251 C14.0523741,0.217552727 13.0048921,1.10449846 12.5697842,1.62327803 C11.6834532,2.74451132 10.8776978,3.78207047 10.1041727,4.78615998 C8.60546763,4.65228138 7.12287769,4.5351376 5.62417267,4.401259 C5.41467626,4.76942515 5.20517985,5.13759131 4.99568345,5.48902263 C5.9142446,6.15841563 6.84892086,6.79433899 7.78359712,7.43026235 C7.01007194,8.45108667 5.78532374,10.3253871 3.83539569,12.6180581 C3.36805756,12.5511188 2.93294964,12.4841795 2.49784172,12.4005054 C2.36892086,12.5678536 2.22388489,12.7352019 2.09496403,12.9025501 C2.38503597,13.1201029 2.69122302,13.3376556 3.01352519,13.5552083 C2.15942446,14.5090933 1.17640288,15.5299178 0.0483453237,16.5842117 L1.46647481,16.5842117 C2.80402878,15.4797132 4.10935252,14.3417452 5.31798561,13.1870422 C7.18733813,11.4131507 8.66992806,9.7396682 10.2653237,7.59761059 C11.3933813,6.07474151 12.5214388,4.6690162 13.7784173,3.14614712 C14.2135252,2.61063271 14.9548202,1.28858153 14.9548202,0.568984053 C14.9709353,0.100408951 14.9870504,0.133878601 14.632518,0.167348251 Z"></path>
                                <polygon points="9.45956834 11.7980517 10.5392806 10.7772274 11.5384173 6.42617284 9.39510792 9.28782793"></polygon>
                            </g>
                        </g>
                        <path d="M19.0231548,0.642857143 C20.3285094,0.642857143 21.3791606,1.77631579 21.3791606,3.14661654 L21.3791606,14.8195489 C21.3791606,16.206767 20.3125904,17.3233082 19.0231548,17.3233082 L2.97684515,17.3233082 C1.67149058,17.3233082 0.620839362,16.1898496 0.620839362,14.8195489 L0.620839362,3.14661654 C0.620839362,1.75939849 1.68740955,0.642857143 2.97684515,0.642857143 L19.0231548,0.642857143 Z M19.0231548,0 L2.97684515,0 C1.33719247,0 0,1.42105262 0,3.16353383 L0,14.8364662 C0,16.5789474 1.33719247,18 2.97684515,18 L19.0231548,18 C20.6628075,18 22,16.5789474 22,14.8364662 L22,3.16353383 C21.984081,1.42105262 20.6468885,0 19.0231548,0 Z" id="Shape"></path>
                    </g>
                </g>
            </g>
        </g>
    </g>
</svg>