<?xml version="1.0" encoding="UTF-8"?>
<svg width="50px" height="30px" viewBox="0 0 50 30" version="1.1" xmlns="http://www.w3.org/2000/svg" xmlns:xlink="http://www.w3.org/1999/xlink">
    <!-- Generator: Sketch 52.5 (67469) - http://www.bohemiancoding.com/sketch -->
    <title>contract-card</title>
    <desc>Created with Sketch.</desc>
    <g id="Page-1" stroke="none" stroke-width="1" fill="none" fill-rule="evenodd">
        <g id="Letter-Copy-2" transform="translate(-577.000000, -271.000000)">
            <g id="Group-3" transform="translate(0.000000, -327.000000)">
                <g id="contract-card" transform="translate(577.000000, 598.000000)">
                    <rect id="Rectangle" fill-opacity="0.01" fill="#FFFFFF" x="0" y="0" width="50" height="30" rx="2"></rect>
                    <g id="CONTRACT-and-Card-Icon_White" transform="translate(0.000000, 8.000000)">
                        <g id="Group" transform="translate(16.000000, 1.000000)" fill="#FFFFFF">
                            <g>
                                <polygon id="Path" points="1.4401122 4.28717949 0.963253857 4.28717949 0 0.0967032967 0.352875175 0.0967032967 1.22075736 3.91111111 1.23029453 3.91111111 2.31753156 0.0967032967 2.72762973 0.0967032967 3.86255259 3.91111111 3.87208976 3.91111111 4.73043478 0.0967032967 5.05469846 0.0967032967 4.07237027 4.28717949 3.61458626 4.28717949 2.51781206 0.483516484 2.50827489 0.483516484"></polygon>
                                <path d="M6.81907433,4.37313797 C5.75091164,4.37313797 5.15960729,3.49206349 5.15960729,2.19194139 C5.15960729,0.891819292 5.75091164,0.0107448107 6.81907433,0.0107448107 C7.88723703,0.0107448107 8.47854137,0.891819292 8.47854137,2.19194139 C8.47854137,3.49206349 7.88723703,4.37313797 6.81907433,4.37313797 Z M6.81907433,4.02930403 C7.74417952,4.02930403 8.11612903,3.11599512 8.11612903,2.19194139 C8.11612903,1.26788767 7.74417952,0.354578755 6.81907433,0.354578755 C5.89396914,0.354578755 5.52201964,1.26788767 5.52201964,2.19194139 C5.52201964,3.11599512 5.89396914,4.02930403 6.81907433,4.02930403 Z" id="Shape" fill-rule="nonzero"></path>
                                <path d="M9.68976157,4.28717949 L9.35596073,4.28717949 L9.35596073,0.0967032967 L10.5671809,0.0967032967 C10.8914446,0.0967032967 11.1584853,0.118192918 11.4446003,0.322344322 C11.7021038,0.494261294 11.826087,0.795115995 11.826087,1.2034188 C11.826087,1.65470085 11.5399719,1.97704518 11.1107994,2.10598291 L11.1107994,2.11672772 C11.5876578,2.2026862 11.6830295,2.56800977 11.7307153,3.05152625 C11.7974755,3.72844933 11.7784011,4.04004884 11.9309958,4.2979243 L11.5399719,4.2979243 C11.4541374,4.01855922 11.4350631,3.72844933 11.4159888,3.42759463 C11.3396914,2.47130647 11.2920056,2.2993895 10.6148668,2.2993895 L9.68976157,2.2993895 L9.68976157,4.28717949 Z M10.4050491,1.94481074 C10.8819074,1.94481074 11.4636746,1.91257631 11.4636746,1.19267399 C11.4636746,0.386813187 10.7960729,0.440537241 10.4431978,0.440537241 L9.68976157,0.440537241 L9.68976157,1.93406593 L10.4050491,1.93406593 L10.4050491,1.94481074 Z" id="Shape" fill-rule="nonzero"></path>
                                <polygon id="Path" points="12.7702665 4.28717949 12.7702665 0.0967032967 13.1040673 0.0967032967 13.1040673 3.93260073 14.973352 3.93260073 14.973352 4.27643468 12.7702665 4.27643468"></polygon>
                                <path d="M16.5946704,0.0967032967 C17.8154278,0.0967032967 18.511641,0.805860806 18.511641,2.19194139 C18.511641,3.57802198 17.8154278,4.28717949 16.5946704,4.28717949 L15.5932679,4.28717949 L15.5932679,0.0967032967 L16.5946704,0.0967032967 Z M16.6805049,3.94334554 C17.7295933,3.94334554 18.1492286,3.25567766 18.1492286,2.19194139 C18.1492286,0.956288156 17.5007013,0.408302808 16.4516129,0.440537241 L15.9270687,0.440537241 L15.9270687,3.93260073 L16.6805049,3.93260073 L16.6805049,3.94334554 Z" id="Shape" fill-rule="nonzero"></path>
                                <polygon id="Path" points="20.7624123 4.28717949 20.7624123 0.0967032967 22.8605891 0.0967032967 22.8605891 0.440537241 21.0962132 0.440537241 21.0962132 1.92332112 22.7938289 1.92332112 22.7938289 2.26715507 21.086676 2.26715507 21.086676 4.27643468 20.7624123 4.27643468"></polygon>
                                <path d="M23.9669004,0.0967032967 L23.9669004,2.8043956 C23.9955119,3.56727717 24.3769986,4.01855922 24.9873773,4.01855922 C25.597756,4.01855922 25.9887798,3.55653236 26.0078541,2.8043956 L26.0078541,0.0967032967 L26.341655,0.0967032967 L26.341655,2.81514042 C26.3321178,3.71770452 25.883871,4.37313797 24.9778401,4.37313797 C24.0718093,4.37313797 23.6330996,3.70695971 23.6140252,2.81514042 L23.6140252,0.0967032967 L23.9669004,0.0967032967 Z" id="Path"></path>
                                <polygon id="Path" points="27.371669 4.28717949 27.371669 0.0967032967 29.5842917 0.0967032967 29.5842917 0.440537241 27.715007 0.440537241 27.715007 1.94481074 29.5175316 1.94481074 29.5175316 2.28864469 27.715007 2.28864469 27.715007 3.93260073 29.6605891 3.93260073 29.6605891 4.27643468 27.371669 4.27643468"></polygon>
                                <polygon id="Path" points="30.5093969 4.28717949 30.5093969 0.0967032967 30.8431978 0.0967032967 30.8431978 3.93260073 32.7124825 3.93260073 32.7124825 4.27643468 30.5093969 4.27643468"></polygon>
                            </g>
                            <g transform="translate(0.000000, 6.000000)">
                                <path d="M2.30799439,1.52576313 C2.28892006,1.38608059 2.25077139,0.784371184 1.70715288,0.784371184 C1.11584853,0.784371184 0.867882188,1.48278388 0.867882188,2.34236874 C0.867882188,2.58949939 0.867882188,3.78217338 1.64992987,3.78217338 C1.98373072,3.78217338 2.30799439,3.54578755 2.31753156,2.98705739 L3.15680224,2.98705739 C3.13772791,3.23418803 3.11865358,3.62100122 2.8230014,3.97557998 C2.48920056,4.36239316 2.07910238,4.44835165 1.73576438,4.44835165 C0.457784011,4.44835165 0.0381486676,3.38461538 0.0381486676,2.34236874 C0.0381486676,1.01001221 0.696213184,0.128937729 1.74530154,0.128937729 C2.55596073,0.128937729 3.12819074,0.687667888 3.12819074,1.52576313 L2.30799439,1.52576313 Z" id="Path"></path>
                                <path d="M5.97026648,0.0752136752 C6.37082749,0.0752136752 6.914446,0.182661783 7.27685835,0.644688645 C7.67741935,1.14969475 7.75371669,1.81587302 7.75371669,2.22417582 C7.75371669,2.83663004 7.59158485,3.48131868 7.28639551,3.86813187 C6.87629734,4.39462759 6.27545582,4.46984127 5.96072931,4.46984127 C5.4743338,4.46984127 4.97840112,4.2979243 4.64460028,3.9003663 C4.2345021,3.41684982 4.18681627,2.71843712 4.18681627,2.33162393 C4.1772791,1.2034188 4.62552595,0.0752136752 5.97026648,0.0752136752 Z M5.29312763,3.45982906 C5.40757363,3.63174603 5.59831697,3.79291819 5.97026648,3.79291819 C6.29453015,3.79291819 6.51388499,3.66398046 6.66647966,3.40610501 C6.79046283,3.2019536 6.914446,2.86886447 6.914446,2.2026862 C6.914446,1.9985348 6.89537167,1.70842491 6.81907433,1.45054945 C6.66647966,0.934798535 6.35175316,0.709157509 5.97026648,0.709157509 C5.67461431,0.709157509 5.43618513,0.848840049 5.28359046,1.06373626 C5.07377279,1.35384615 5.00701262,1.80512821 5.00701262,2.27789988 C5.01654979,2.68620269 5.07377279,3.13748474 5.29312763,3.45982906 Z" id="Shape" fill-rule="nonzero"></path>
                                <polygon id="Path" points="9.01262272 0.161172161 10.1666199 0.161172161 11.5590463 3.45982906 11.5590463 0.161172161 12.3029453 0.161172161 12.3029453 4.35164835 11.2061711 4.35164835 9.76605891 0.87032967 9.76605891 4.35164835 9.01262272 4.35164835 9.01262272 0.161172161"></polygon>
                                <polygon id="Path" points="14.5060309 0.85958486 13.3997195 0.85958486 13.3997195 0.161172161 16.4134642 0.161172161 16.4134642 0.85958486 15.3071529 0.85958486 15.3071529 4.36239316 14.5060309 4.36239316"></polygon>
                                <path d="M17.4530154,0.161172161 L18.8835905,0.161172161 C19.2936886,0.15042735 19.713324,0.15042735 20.0089762,0.440537241 C20.2378682,0.666178266 20.3332398,0.977777778 20.3332398,1.24639805 C20.3332398,2.03076923 19.7323983,2.21343101 19.5511921,2.27789988 C20.113885,2.33162393 20.1520337,2.6969475 20.2187938,3.24493284 C20.2760168,3.73919414 20.3046283,3.94334554 20.3332398,4.06153846 C20.3713885,4.24420024 20.4095372,4.2979243 20.4476858,4.36239316 L19.5702665,4.36239316 C19.5321178,4.12600733 19.4176718,3.07301587 19.369986,2.9010989 C19.2936886,2.66471306 19.1029453,2.66471306 18.969425,2.66471306 L18.2732118,2.66471306 L18.2732118,4.36239316 L17.4530154,4.36239316 L17.4530154,0.161172161 Z M18.2446003,1.98778999 L18.8835905,1.98778999 C18.9789621,1.98778999 19.1601683,1.98778999 19.2936886,1.86959707 C19.3509116,1.82661783 19.5035063,1.67619048 19.5035063,1.38608059 C19.5035063,1.10671551 19.3795231,0.967032967 19.3032258,0.913308913 C19.1792426,0.816605617 19.026648,0.816605617 18.7786816,0.816605617 L18.2446003,0.816605617 L18.2446003,1.98778999 Z" id="Shape" fill-rule="nonzero"></path>
                                <path d="M23.5758766,0.161172161 L24.8729313,4.35164835 L24.0718093,4.35164835 L23.8047686,3.44908425 L22.3360449,3.44908425 L22.059467,4.35164835 L21.2964937,4.35164835 L22.6412342,0.161172161 L23.5758766,0.161172161 Z M23.5949509,2.77216117 L23.0799439,0.988522589 L22.5267882,2.77216117 L23.5949509,2.77216117 Z" id="Shape" fill-rule="nonzero"></path>
                                <path d="M28.001122,1.52576313 C27.9820477,1.38608059 27.943899,0.784371184 27.4002805,0.784371184 C26.8089762,0.784371184 26.5610098,1.48278388 26.5610098,2.34236874 C26.5610098,2.58949939 26.5610098,3.78217338 27.3430575,3.78217338 C27.6768583,3.78217338 28.001122,3.54578755 28.0106592,2.98705739 L28.8499299,2.98705739 C28.8308555,3.23418803 28.8117812,3.62100122 28.516129,3.97557998 C28.1823282,4.36239316 27.77223,4.44835165 27.428892,4.44835165 C26.1509116,4.44835165 25.7312763,3.38461538 25.7312763,2.34236874 C25.7312763,1.01001221 26.3893408,0.128937729 27.4384292,0.128937729 C28.2490884,0.128937729 28.8213184,0.687667888 28.8213184,1.52576313 L28.001122,1.52576313 Z" id="Path"></path>
                                <polygon id="Path" points="30.8336606 0.85958486 29.7273492 0.85958486 29.7273492 0.161172161 32.741094 0.161172161 32.741094 0.85958486 31.6347826 0.85958486 31.6347826 4.36239316 30.8336606 4.36239316 30.8336606 0.85958486"></polygon>
                            </g>
                        </g>
                        <g id="Group">
                            <g id="Path">
                                <path d="M7.5,8.48421053 L0.108870968,6.48631579 L0.108870968,10.4821053 C0.108870968,11.8368421 0.943548387,12.9452632 1.95967742,12.9452632 L13.1129032,12.9452632 C14.1290323,12.9452632 14.9637097,11.8368421 14.9637097,10.4821053 L14.9637097,6.47263158 L7.5,8.48421053 Z"></path>
                                <path d="M14.9637097,3.92736842 L14.9637097,2.46315789 C14.9637097,1.10842105 14.1290323,0 13.1129032,0 L1.97177419,0 C0.955645161,0 0.120967742,1.10842105 0.120967742,2.46315789 L0.120967742,3.94105263 L7.5,5.93894737 L14.9637097,3.92736842 Z"></path>
                                <polygon fill="#FFFFFF" points="14.9637097 6.47263158 14.9637097 3.92736842 7.5 5.93894737 0.108870968 3.92736842 0.108870968 6.48631579 7.5 8.48421053"></polygon>
                            </g>
                            <path d="M12.9845277,0.480972516 C13.8640065,0.480972516 14.5846906,1.29175476 14.5846906,2.28118393 L14.5846906,10.7188161 C14.5846906,11.7082452 13.8640065,12.5190275 12.9845277,12.5190275 L2.0276873,12.5190275 C1.14820847,12.5190275 0.42752443,11.7082452 0.42752443,10.7188161 L0.42752443,2.28118393 C0.42752443,1.29175476 1.14820847,0.480972516 2.0276873,0.480972516 L12.9845277,0.480972516 Z M12.9845277,0 L2.0276873,0 C0.916123779,0 0,1.03065539 0,2.28118393 L0,10.7188161 C0,11.9693446 0.916123779,13 2.0276873,13 L12.9723127,13 C14.0838762,13 15,11.9693446 15,10.7188161 L15,2.28118393 C15,1.03065539 14.0960912,0 12.9845277,0 Z" id="Shape" fill="#FFFFFF" fill-rule="nonzero"></path>
                        </g>
                    </g>
                </g>
            </g>
        </g>
    </g>
</svg>