<?xml version="1.0" encoding="UTF-8"?>
<svg width="20px" height="20px" viewBox="0 0 20 20" version="1.1" xmlns="http://www.w3.org/2000/svg" xmlns:xlink="http://www.w3.org/1999/xlink">
    <!-- Generator: Sketch 52.6 (67491) - http://www.bohemiancoding.com/sketch -->
    <title>icon/maps/local_airport_24px</title>
    <desc>Created with Sketch.</desc>
    <defs>
        <path d="M19,14 L19,12 L11,7 L11,1.5 C11,0.67 10.33,0 9.5,0 C8.67,0 8,0.67 8,1.5 L8,7 L0,12 L0,14 L8,11.5 L8,17 L6,18.5 L6,20 L9.5,19 L13,20 L13,18.5 L11,17 L11,11.5 L19,14 Z" id="path-1"></path>
        <path d="M913,14 L913,12 L905,7 L905,1.5 C905,0.67 904.33,0 903.5,0 C902.67,0 902,0.67 902,1.5 L902,7 L894,12 L894,14 L902,11.5 L902,17 L900,18.5 L900,20 L903.5,19 L907,20 L907,18.5 L905,17 L905,11.5 L913,14 Z" id="path-3"></path>
    </defs>
    <g id="Fuel-Finder" stroke="none" stroke-width="1" fill="none" fill-rule="evenodd">
        <g id="0-Dashboard---FuelQuotes-Copy" transform="translate(-24.000000, -290.000000)">
            <g id="Group-6" transform="translate(24.000000, 289.000000)">
                <g id="icon/maps/local_airport_24px" transform="translate(0.000000, 1.000000)">
                    <mask id="mask-2" fill="white">
                        <use xlink:href="#path-1"></use>
                    </mask>
                    <use fill="#00D1FB" fill-rule="nonzero" xlink:href="#path-1"></use>
                    <mask id="mask-4" fill="white">
                        <use xlink:href="#path-3"></use>
                    </mask>
                    <use fill="#00D1FB" fill-rule="nonzero" xlink:href="#path-3"></use>
                </g>
            </g>
        </g>
    </g>
</svg>