<?xml version="1.0" encoding="UTF-8"?>
<svg width="41px" height="24px" viewBox="0 0 41 24" version="1.1" xmlns="http://www.w3.org/2000/svg" xmlns:xlink="http://www.w3.org/1999/xlink">
    <!-- Generator: Sketch 57.1 (83088) - https://sketch.com -->
    <title>Group 4</title>
    <desc>Created with Sketch.</desc>
    <g id="Card-Bug-Exploration" stroke="none" stroke-width="1" fill="none" fill-rule="evenodd">
        <g id="Group-5" transform="translate(-413.500000, -712.000000)" fill="#FFFFFF" fill-rule="nonzero">
            <g id="Group-4" transform="translate(413.500000, 712.000000)">
                <path d="M36.4635854,0.571428571 C38.1862745,0.571428571 39.6218487,2 39.6218487,3.71428571 L39.6218487,20.2857143 C39.6218487,22 38.1862745,23.4285714 36.4635854,23.4285714 L3.732493,23.4285714 C2.00980392,23.4285714 0.574229692,22 0.574229692,20.2857143 L0.574229692,3.71428571 C0.574229692,2 2.00980392,0.571428571 3.732493,0.571428571 L36.4635854,0.571428571 L36.4635854,0.571428571 Z M36.4635854,0 L3.732493,0 C1.66526611,0 -1.56319402e-13,1.65714286 -1.56319402e-13,3.71428571 L-1.56319402e-13,20.2857143 C-1.56319402e-13,22.3428571 1.66526611,24 3.732493,24 L36.4635854,24 C38.5308123,24 40.1960784,22.3428571 40.1960784,20.2857143 L40.1960784,3.71428571 C40.1960784,1.65714286 38.5308123,0 36.4635854,0 L36.4635854,0 Z" id="Shape"></path>
                <g id="UVair_Logo" transform="translate(4.019608, 3.428571)">
                    <g id="Group">
                        <path d="M6.54621849,9.71428571 C5.85714286,10.4 4.99579832,10.6857143 4.01960784,10.6857143 C2.87114846,10.6857143 1.78011204,10.3428571 1.09103641,9.31428571 C0.516806723,8.4 0.459383754,7.31428571 0.459383754,6.28571429 L0.459383754,0.8 L2.9859944,0.8 L2.9859944,6.57142857 C2.9859944,7.37142857 2.9859944,8.34285714 4.01960784,8.34285714 C5.05322129,8.34285714 5.05322129,7.37142857 5.05322129,6.57142857 L5.05322129,0.8 L7.52240896,0.8 L7.52240896,6.28571429 C7.52240896,7.48571429 7.46498599,8.85714286 6.54621849,9.71428571" id="Path"></path>
                        <path d="M13.7240896,10.4571429 L10.2212885,10.4571429 L8.03921569,0.8 L10.6806723,0.8 L11.4845938,4.57142857 C11.7142857,5.71428571 11.8865546,6.85714286 12.0014006,8 L12.0588235,8 C12.1736695,6.85714286 12.2885154,5.71428571 12.5182073,4.57142857 L13.2072829,0.8 L15.7913165,0.8 L13.7240896,10.4571429 Z" id="Path"></path>
                        <path d="M20.1554622,5.6 C19.8683473,5.25714286 19.5812325,5.02857143 19.1218487,5.02857143 C18.1456583,5.02857143 17.9733894,6.17142857 17.9733894,6.91428571 C17.9733894,7.6 18.1456583,8.74285714 19.0644258,8.74285714 C19.4663866,8.74285714 19.8109244,8.4 19.9831933,8 C20.0980392,7.65714286 20.0980392,7.2 20.0980392,6.85714286 L20.1554622,5.6 L20.1554622,5.6 Z M20.442577,10.4571429 L20.442577,10.1714286 C20.442577,10 20.5,9.82857143 20.5,9.65714286 L20.442577,9.6 C19.9257703,10.3428571 19.3515406,10.6857143 18.4327731,10.6857143 C16.3081232,10.6857143 15.7338936,8.68571429 15.7338936,6.91428571 C15.7338936,5.31428571 16.3081232,3.08571429 18.3179272,3.08571429 C19.0644258,3.08571429 19.6386555,3.42857143 20.2128852,3.88571429 L20.2128852,3.31428571 L22.5098039,3.31428571 L22.5098039,10.4 L20.442577,10.4 L20.442577,10.4571429 L20.442577,10.4571429 Z" id="Shape"></path>
                        <path d="M23.7156863,3.31428571 L26.012605,3.31428571 L26.012605,10.4 L23.7156863,10.4 L23.7156863,3.31428571 Z M23.6582633,0.285714286 L26.070028,0.285714286 L26.070028,2.28571429 L23.6582633,2.28571429 L23.6582633,0.285714286 Z" id="Shape"></path>
                        <path d="M31.0658263,5.6 C29.745098,5.6 29.5154062,6.8 29.5154062,7.88571429 L29.5154062,10.4571429 L27.2184874,10.4571429 L27.2184874,3.37142857 L29.3431373,3.37142857 L29.3431373,3.82857143 C29.3431373,4.17142857 29.2857143,4.45714286 29.2857143,4.74285714 L29.2857143,4.74285714 C29.5728291,3.82857143 29.9747899,3.14285714 31.0084034,3.14285714 C31.2380952,3.14285714 31.4677871,3.2 31.697479,3.25714286 L31.697479,5.71428571 C31.5252101,5.65714286 31.2955182,5.6 31.0658263,5.6" id="Path"></path>
                    </g>
                    <g id="Group" transform="translate(0.000000, 13.142857)">
                        <polygon id="Path" points="1.03361345 3.65714286 0.401960784 3.65714286 0.401960784 0.171428571 2.18207283 0.171428571 2.18207283 0.8 1.03361345 0.8 1.03361345 1.71428571 2.06722689 1.71428571 2.06722689 2.28571429 1.03361345 2.28571429"></polygon>
                        <path d="M5.28291317,0.228571429 L5.28291317,2.45714286 C5.28291317,2.68571429 5.2254902,2.91428571 5.11064426,3.14285714 C4.99579832,3.37142857 4.88095238,3.48571429 4.6512605,3.6 C4.4789916,3.71428571 4.24929972,3.77142857 3.96218487,3.77142857 C3.56022409,3.77142857 3.27310924,3.65714286 3.04341737,3.42857143 C2.81372549,3.2 2.69887955,2.91428571 2.69887955,2.51428571 L2.69887955,0.285714286 L3.33053221,0.285714286 L3.33053221,2.4 C3.33053221,2.68571429 3.38795518,2.85714286 3.44537815,2.97142857 C3.50280112,3.08571429 3.67507003,3.14285714 3.9047619,3.14285714 C4.13445378,3.14285714 4.24929972,3.08571429 4.36414566,2.97142857 C4.4789916,2.85714286 4.53641457,2.62857143 4.53641457,2.4 L4.53641457,0.285714286 L5.28291317,0.285714286 L5.28291317,0.228571429 Z" id="Path"></path>
                        <polygon id="Path" points="7.80952381 3.65714286 6.02941176 3.65714286 6.02941176 0.171428571 7.80952381 0.171428571 7.80952381 0.8 6.71848739 0.8 6.71848739 1.54285714 7.75210084 1.54285714 7.75210084 2.17142857 6.71848739 2.17142857 6.71848739 3.08571429 7.80952381 3.08571429"></polygon>
                        <polygon id="Path" points="8.44117647 3.65714286 8.44117647 0.171428571 9.07282913 0.171428571 9.07282913 3.02857143 10.3361345 3.02857143 10.3361345 3.65714286"></polygon>
                        <polygon id="Path" points="10.9103641 3.65714286 10.9103641 0.171428571 11.5420168 0.171428571 11.5420168 3.65714286"></polygon>
                        <path d="M15.0448179,3.65714286 L14.2408964,3.65714286 L12.9201681,1.02857143 L12.9201681,1.02857143 C12.9201681,1.48571429 12.977591,1.82857143 12.977591,2 L12.977591,3.65714286 L12.4033613,3.65714286 L12.4033613,0.171428571 L13.2072829,0.171428571 L14.5280112,2.74285714 L14.5280112,2.74285714 C14.5280112,2.28571429 14.4705882,2 14.4705882,1.77142857 L14.4705882,0.114285714 L15.0448179,0.114285714 C15.0448179,0.114285714 15.0448179,3.65714286 15.0448179,3.65714286 Z" id="Path"></path>
                        <path d="M16.9971989,1.71428571 L18.2030812,1.71428571 L18.2030812,3.48571429 C18.0308123,3.54285714 17.8011204,3.6 17.6288515,3.65714286 C17.4565826,3.71428571 17.2843137,3.71428571 17.1120448,3.71428571 C16.6526611,3.71428571 16.3081232,3.54285714 16.0210084,3.25714286 C15.7338936,2.97142857 15.6764706,2.51428571 15.6764706,1.94285714 C15.6764706,1.37142857 15.7913165,0.971428571 16.0784314,0.628571429 C16.3655462,0.342857143 16.767507,0.171428571 17.2843137,0.171428571 C17.5714286,0.171428571 17.9159664,0.228571429 18.2030812,0.4 L17.9733894,0.971428571 C17.7436975,0.857142857 17.5140056,0.8 17.2843137,0.8 C16.9971989,0.8 16.767507,0.914285714 16.5952381,1.14285714 C16.4229692,1.37142857 16.3655462,1.65714286 16.3655462,2 C16.3655462,2.4 16.4229692,2.68571429 16.5952381,2.85714286 C16.710084,3.02857143 16.9397759,3.14285714 17.1694678,3.14285714 C17.2843137,3.14285714 17.4565826,3.14285714 17.5714286,3.08571429 L17.5714286,2.34285714 L16.9971989,2.34285714 C16.9971989,2.34285714 16.9971989,1.71428571 16.9971989,1.71428571 Z" id="Path"></path>
                        <path d="M21.3613445,0.8 C21.1316527,0.8 20.9019608,0.914285714 20.7871148,1.08571429 C20.6722689,1.31428571 20.557423,1.6 20.557423,1.94285714 C20.557423,2.74285714 20.7871148,3.08571429 21.3039216,3.08571429 C21.5336134,3.08571429 21.7633053,3.02857143 22.1078431,2.91428571 L22.1078431,3.54285714 C21.8781513,3.65714286 21.5910364,3.71428571 21.2464986,3.71428571 C20.7871148,3.71428571 20.442577,3.54285714 20.2128852,3.25714286 C19.9831933,2.97142857 19.8683473,2.51428571 19.8683473,1.94285714 C19.8683473,1.6 19.9257703,1.25714286 20.0406162,0.971428571 C20.1554622,0.685714286 20.3277311,0.514285714 20.557423,0.342857143 C20.7871148,0.171428571 21.0168067,0.114285714 21.3039216,0.114285714 C21.5910364,0.114285714 21.8781513,0.171428571 22.2226891,0.342857143 L21.9929972,0.914285714 C21.8781513,0.857142857 21.7633053,0.8 21.6484594,0.742857143 C21.5910364,0.8 21.4761905,0.8 21.3613445,0.8 Z" id="Path"></path>
                        <path d="M24.8641457,3.65714286 L24.6918768,2.85714286 L23.5434174,2.85714286 L23.3137255,3.65714286 L22.6246499,3.65714286 L23.7156863,0.171428571 L24.5196078,0.171428571 L25.6106443,3.65714286 L24.8641457,3.65714286 Z M24.5196078,2.22857143 C24.289916,1.48571429 24.17507,1.08571429 24.17507,0.971428571 C24.17507,0.857142857 24.1176471,0.8 24.1176471,0.742857143 C24.0602241,0.971428571 23.9453782,1.42857143 23.7156863,2.22857143 C23.7156863,2.22857143 24.5196078,2.22857143 24.5196078,2.22857143 Z" id="Shape"></path>
                        <path d="M26.6442577,2.34285714 L26.6442577,3.65714286 L26.012605,3.65714286 L26.012605,0.171428571 L26.9313725,0.171428571 C27.3333333,0.171428571 27.6778711,0.228571429 27.8501401,0.4 C28.022409,0.571428571 28.1372549,0.857142857 28.1372549,1.2 C28.1372549,1.42857143 28.0798319,1.6 27.964986,1.77142857 C27.8501401,1.94285714 27.7352941,2.05714286 27.5630252,2.17142857 C28.022409,2.97142857 28.3095238,3.42857143 28.4817927,3.65714286 L27.7352941,3.65714286 L26.9887955,2.34285714 L26.6442577,2.34285714 Z M26.6442577,1.77142857 L26.8739496,1.77142857 C27.1036415,1.77142857 27.2184874,1.71428571 27.3333333,1.65714286 C27.4481793,1.6 27.5056022,1.48571429 27.5056022,1.31428571 C27.5056022,1.14285714 27.4481793,1.02857143 27.3333333,0.971428571 C27.2184874,0.914285714 27.1036415,0.857142857 26.8739496,0.857142857 L26.7016807,0.857142857 L26.7016807,1.77142857 C26.7016807,1.77142857 26.6442577,1.77142857 26.6442577,1.77142857 Z" id="Shape"></path>
                        <path d="M31.3529412,1.94285714 C31.3529412,2.51428571 31.1806723,2.97142857 30.8935574,3.25714286 C30.6064426,3.54285714 30.2044818,3.71428571 29.6302521,3.71428571 L28.7689076,3.71428571 L28.7689076,0.228571429 L29.745098,0.228571429 C30.2619048,0.228571429 30.6638655,0.4 30.8935574,0.685714286 C31.2380952,0.971428571 31.3529412,1.37142857 31.3529412,1.94285714 Z M30.7212885,1.94285714 C30.7212885,1.2 30.4341737,0.8 29.859944,0.8 L29.5154062,0.8 L29.5154062,3.02857143 L29.802521,3.02857143 C30.3767507,3.08571429 30.7212885,2.68571429 30.7212885,1.94285714 Z" id="Shape"></path>
                    </g>
                </g>
            </g>
        </g>
    </g>
</svg>