<?xml version="1.0" encoding="UTF-8"?>
<svg width="34px" height="20px" viewBox="0 0 34 20" version="1.1" xmlns="http://www.w3.org/2000/svg" xmlns:xlink="http://www.w3.org/1999/xlink">
    <!-- Generator: Sketch 57.1 (83088) - https://sketch.com -->
    <title>Group 4</title>
    <desc>Created with Sketch.</desc>
    <g id="Card-Bug-Exploration" stroke="none" stroke-width="1" fill="none" fill-rule="evenodd">
        <g id="Group-11" transform="translate(-346.000000, -867.000000)" fill="#FFFFFF" fill-rule="nonzero">
            <g id="Group-4" transform="translate(346.000000, 867.000000)">
                <path d="M30.2380952,0.476190476 C31.6666667,0.476190476 32.8571429,1.66666667 32.8571429,3.0952381 L32.8571429,16.9047619 C32.8571429,18.3333333 31.6666667,19.5238095 30.2380952,19.5238095 L3.0952381,19.5238095 C1.66666667,19.5238095 0.476190476,18.3333333 0.476190476,16.9047619 L0.476190476,3.0952381 C0.476190476,1.66666667 1.66666667,0.476190476 3.0952381,0.476190476 L30.2380952,0.476190476 L30.2380952,0.476190476 Z M30.2380952,0 L3.0952381,0 C1.38095238,0 -1.56319402e-13,1.38095238 -1.56319402e-13,3.0952381 L-1.56319402e-13,16.9047619 C-1.56319402e-13,18.6190476 1.38095238,20 3.0952381,20 L30.2380952,20 C31.952381,20 33.3333333,18.6190476 33.3333333,16.9047619 L33.3333333,3.0952381 C33.3333333,1.38095238 31.952381,0 30.2380952,0 L30.2380952,0 Z" id="Shape"></path>
                <g id="UVair_Logo" transform="translate(3.333333, 2.857143)">
                    <g id="Group">
                        <path d="M5.42857143,8.0952381 C4.85714286,8.66666667 4.14285714,8.9047619 3.33333333,8.9047619 C2.38095238,8.9047619 1.47619048,8.61904762 0.904761905,7.76190476 C0.428571429,7 0.380952381,6.0952381 0.380952381,5.23809524 L0.380952381,0.666666667 L2.47619048,0.666666667 L2.47619048,5.47619048 C2.47619048,6.14285714 2.47619048,6.95238095 3.33333333,6.95238095 C4.19047619,6.95238095 4.19047619,6.14285714 4.19047619,5.47619048 L4.19047619,0.666666667 L6.23809524,0.666666667 L6.23809524,5.23809524 C6.23809524,6.23809524 6.19047619,7.38095238 5.42857143,8.0952381" id="Path"></path>
                        <path d="M11.3809524,8.71428571 L8.47619048,8.71428571 L6.66666667,0.666666667 L8.85714286,0.666666667 L9.52380952,3.80952381 C9.71428571,4.76190476 9.85714286,5.71428571 9.95238095,6.66666667 L10,6.66666667 C10.0952381,5.71428571 10.1904762,4.76190476 10.3809524,3.80952381 L10.952381,0.666666667 L13.0952381,0.666666667 L11.3809524,8.71428571 Z" id="Path"></path>
                        <path d="M16.7142857,4.66666667 C16.4761905,4.38095238 16.2380952,4.19047619 15.8571429,4.19047619 C15.047619,4.19047619 14.9047619,5.14285714 14.9047619,5.76190476 C14.9047619,6.33333333 15.047619,7.28571429 15.8095238,7.28571429 C16.1428571,7.28571429 16.4285714,7 16.5714286,6.66666667 C16.6666667,6.38095238 16.6666667,6 16.6666667,5.71428571 L16.7142857,4.66666667 L16.7142857,4.66666667 Z M16.952381,8.71428571 L16.952381,8.47619048 C16.952381,8.33333333 17,8.19047619 17,8.04761905 L16.952381,8 C16.5238095,8.61904762 16.047619,8.9047619 15.2857143,8.9047619 C13.5238095,8.9047619 13.047619,7.23809524 13.047619,5.76190476 C13.047619,4.42857143 13.5238095,2.57142857 15.1904762,2.57142857 C15.8095238,2.57142857 16.2857143,2.85714286 16.7619048,3.23809524 L16.7619048,2.76190476 L18.6666667,2.76190476 L18.6666667,8.66666667 L16.952381,8.66666667 L16.952381,8.71428571 L16.952381,8.71428571 Z" id="Shape"></path>
                        <path d="M19.6666667,2.76190476 L21.5714286,2.76190476 L21.5714286,8.66666667 L19.6666667,8.66666667 L19.6666667,2.76190476 Z M19.6190476,0.238095238 L21.6190476,0.238095238 L21.6190476,1.9047619 L19.6190476,1.9047619 L19.6190476,0.238095238 Z" id="Shape"></path>
                        <path d="M25.7619048,4.66666667 C24.6666667,4.66666667 24.4761905,5.66666667 24.4761905,6.57142857 L24.4761905,8.71428571 L22.5714286,8.71428571 L22.5714286,2.80952381 L24.3333333,2.80952381 L24.3333333,3.19047619 C24.3333333,3.47619048 24.2857143,3.71428571 24.2857143,3.95238095 L24.2857143,3.95238095 C24.5238095,3.19047619 24.8571429,2.61904762 25.7142857,2.61904762 C25.9047619,2.61904762 26.0952381,2.66666667 26.2857143,2.71428571 L26.2857143,4.76190476 C26.1428571,4.71428571 25.952381,4.66666667 25.7619048,4.66666667" id="Path"></path>
                    </g>
                    <g id="Group" transform="translate(0.000000, 10.952381)">
                        <polygon id="Path" points="0.857142857 3.04761905 0.333333333 3.04761905 0.333333333 0.142857143 1.80952381 0.142857143 1.80952381 0.666666667 0.857142857 0.666666667 0.857142857 1.42857143 1.71428571 1.42857143 1.71428571 1.9047619 0.857142857 1.9047619"></polygon>
                        <path d="M4.38095238,0.19047619 L4.38095238,2.04761905 C4.38095238,2.23809524 4.33333333,2.42857143 4.23809524,2.61904762 C4.14285714,2.80952381 4.04761905,2.9047619 3.85714286,3 C3.71428571,3.0952381 3.52380952,3.14285714 3.28571429,3.14285714 C2.95238095,3.14285714 2.71428571,3.04761905 2.52380952,2.85714286 C2.33333333,2.66666667 2.23809524,2.42857143 2.23809524,2.0952381 L2.23809524,0.238095238 L2.76190476,0.238095238 L2.76190476,2 C2.76190476,2.23809524 2.80952381,2.38095238 2.85714286,2.47619048 C2.9047619,2.57142857 3.04761905,2.61904762 3.23809524,2.61904762 C3.42857143,2.61904762 3.52380952,2.57142857 3.61904762,2.47619048 C3.71428571,2.38095238 3.76190476,2.19047619 3.76190476,2 L3.76190476,0.238095238 L4.38095238,0.238095238 L4.38095238,0.19047619 Z" id="Path"></path>
                        <polygon id="Path" points="6.47619048 3.04761905 5 3.04761905 5 0.142857143 6.47619048 0.142857143 6.47619048 0.666666667 5.57142857 0.666666667 5.57142857 1.28571429 6.42857143 1.28571429 6.42857143 1.80952381 5.57142857 1.80952381 5.57142857 2.57142857 6.47619048 2.57142857"></polygon>
                        <polygon id="Path" points="7 3.04761905 7 0.142857143 7.52380952 0.142857143 7.52380952 2.52380952 8.57142857 2.52380952 8.57142857 3.04761905"></polygon>
                        <polygon id="Path" points="9.04761905 3.04761905 9.04761905 0.142857143 9.57142857 0.142857143 9.57142857 3.04761905"></polygon>
                        <path d="M12.4761905,3.04761905 L11.8095238,3.04761905 L10.7142857,0.857142857 L10.7142857,0.857142857 C10.7142857,1.23809524 10.7619048,1.52380952 10.7619048,1.66666667 L10.7619048,3.04761905 L10.2857143,3.04761905 L10.2857143,0.142857143 L10.952381,0.142857143 L12.047619,2.28571429 L12.047619,2.28571429 C12.047619,1.9047619 12,1.66666667 12,1.47619048 L12,0.0952380952 L12.4761905,0.0952380952 C12.4761905,0.0952380952 12.4761905,3.04761905 12.4761905,3.04761905 Z" id="Path"></path>
                        <path d="M14.0952381,1.42857143 L15.0952381,1.42857143 L15.0952381,2.9047619 C14.952381,2.95238095 14.7619048,3 14.6190476,3.04761905 C14.4761905,3.0952381 14.3333333,3.0952381 14.1904762,3.0952381 C13.8095238,3.0952381 13.5238095,2.95238095 13.2857143,2.71428571 C13.047619,2.47619048 13,2.0952381 13,1.61904762 C13,1.14285714 13.0952381,0.80952381 13.3333333,0.523809524 C13.5714286,0.285714286 13.9047619,0.142857143 14.3333333,0.142857143 C14.5714286,0.142857143 14.8571429,0.19047619 15.0952381,0.333333333 L14.9047619,0.80952381 C14.7142857,0.714285714 14.5238095,0.666666667 14.3333333,0.666666667 C14.0952381,0.666666667 13.9047619,0.761904762 13.7619048,0.952380952 C13.6190476,1.14285714 13.5714286,1.38095238 13.5714286,1.66666667 C13.5714286,2 13.6190476,2.23809524 13.7619048,2.38095238 C13.8571429,2.52380952 14.047619,2.61904762 14.2380952,2.61904762 C14.3333333,2.61904762 14.4761905,2.61904762 14.5714286,2.57142857 L14.5714286,1.95238095 L14.0952381,1.95238095 C14.0952381,1.95238095 14.0952381,1.42857143 14.0952381,1.42857143 Z" id="Path"></path>
                        <path d="M17.7142857,0.666666667 C17.5238095,0.666666667 17.3333333,0.761904762 17.2380952,0.904761905 C17.1428571,1.0952381 17.047619,1.33333333 17.047619,1.61904762 C17.047619,2.28571429 17.2380952,2.57142857 17.6666667,2.57142857 C17.8571429,2.57142857 18.047619,2.52380952 18.3333333,2.42857143 L18.3333333,2.95238095 C18.1428571,3.04761905 17.9047619,3.0952381 17.6190476,3.0952381 C17.2380952,3.0952381 16.952381,2.95238095 16.7619048,2.71428571 C16.5714286,2.47619048 16.4761905,2.0952381 16.4761905,1.61904762 C16.4761905,1.33333333 16.5238095,1.04761905 16.6190476,0.80952381 C16.7142857,0.571428571 16.8571429,0.428571429 17.047619,0.285714286 C17.2380952,0.142857143 17.4285714,0.0952380952 17.6666667,0.0952380952 C17.9047619,0.0952380952 18.1428571,0.142857143 18.4285714,0.285714286 L18.2380952,0.761904762 C18.1428571,0.714285714 18.047619,0.666666667 17.952381,0.619047619 C17.9047619,0.666666667 17.8095238,0.666666667 17.7142857,0.666666667 Z" id="Path"></path>
                        <path d="M20.6190476,3.04761905 L20.4761905,2.38095238 L19.5238095,2.38095238 L19.3333333,3.04761905 L18.7619048,3.04761905 L19.6666667,0.142857143 L20.3333333,0.142857143 L21.2380952,3.04761905 L20.6190476,3.04761905 Z M20.3333333,1.85714286 C20.1428571,1.23809524 20.047619,0.904761905 20.047619,0.80952381 C20.047619,0.714285714 20,0.666666667 20,0.619047619 C19.952381,0.80952381 19.8571429,1.19047619 19.6666667,1.85714286 C19.6666667,1.85714286 20.3333333,1.85714286 20.3333333,1.85714286 Z" id="Shape"></path>
                        <path d="M22.0952381,1.95238095 L22.0952381,3.04761905 L21.5714286,3.04761905 L21.5714286,0.142857143 L22.3333333,0.142857143 C22.6666667,0.142857143 22.952381,0.19047619 23.0952381,0.333333333 C23.2380952,0.476190476 23.3333333,0.714285714 23.3333333,1 C23.3333333,1.19047619 23.2857143,1.33333333 23.1904762,1.47619048 C23.0952381,1.61904762 23,1.71428571 22.8571429,1.80952381 C23.2380952,2.47619048 23.4761905,2.85714286 23.6190476,3.04761905 L23,3.04761905 L22.3809524,1.95238095 L22.0952381,1.95238095 Z M22.0952381,1.47619048 L22.2857143,1.47619048 C22.4761905,1.47619048 22.5714286,1.42857143 22.6666667,1.38095238 C22.7619048,1.33333333 22.8095238,1.23809524 22.8095238,1.0952381 C22.8095238,0.952380952 22.7619048,0.857142857 22.6666667,0.80952381 C22.5714286,0.761904762 22.4761905,0.714285714 22.2857143,0.714285714 L22.1428571,0.714285714 L22.1428571,1.47619048 C22.1428571,1.47619048 22.0952381,1.47619048 22.0952381,1.47619048 Z" id="Shape"></path>
                        <path d="M26,1.61904762 C26,2.0952381 25.8571429,2.47619048 25.6190476,2.71428571 C25.3809524,2.95238095 25.047619,3.0952381 24.5714286,3.0952381 L23.8571429,3.0952381 L23.8571429,0.19047619 L24.6666667,0.19047619 C25.0952381,0.19047619 25.4285714,0.333333333 25.6190476,0.571428571 C25.9047619,0.80952381 26,1.14285714 26,1.61904762 Z M25.4761905,1.61904762 C25.4761905,1 25.2380952,0.666666667 24.7619048,0.666666667 L24.4761905,0.666666667 L24.4761905,2.52380952 L24.7142857,2.52380952 C25.1904762,2.57142857 25.4761905,2.23809524 25.4761905,1.61904762 Z" id="Shape"></path>
                    </g>
                </g>
            </g>
        </g>
    </g>
</svg>