<?xml version="1.0" encoding="UTF-8"?>
<svg width="72px" height="20px" viewBox="0 0 72 20" version="1.1" xmlns="http://www.w3.org/2000/svg" xmlns:xlink="http://www.w3.org/1999/xlink">
    <!-- Generator: Sketch 57.1 (83088) - https://sketch.com -->
    <title>Group 8</title>
    <desc>Created with Sketch.</desc>
    <g id="Card-Bug-Exploration" stroke="none" stroke-width="1" fill="none" fill-rule="evenodd">
        <g id="Group-11" transform="translate(-100.000000, -867.000000)">
            <g id="Group-8" transform="translate(100.000000, 867.000000)">
                <g id="Group" transform="translate(26.000000, 3.000000)" fill="#FFFFFF" fill-rule="nonzero">
                    <g>
                        <polygon id="Path" points="1.9877605 6.00205129 1.32956166 6.00205129 0 0.135384615 0.487067143 0.135384615 1.68498903 5.47555555 1.69815301 5.47555555 3.19884638 0.135384615 3.76489737 0.135384615 5.33141062 5.47555555 5.3445746 5.47555555 6.52933251 0.135384615 6.97690773 0.135384615 5.62101812 6.00205129 4.98914723 6.00205129 3.47528989 0.676923078 3.4621259 0.676923078"></polygon>
                        <path d="M9.41224344,6.12239316 C7.93787804,6.12239316 7.12171147,4.88888889 7.12171147,3.06871795 C7.12171147,1.24854701 7.93787804,0.015042735 9.41224344,0.015042735 C10.8866089,0.015042735 11.7027754,1.24854701 11.7027754,3.06871795 C11.7027754,4.88888889 10.8866089,6.12239316 9.41224344,6.12239316 Z M9.41224344,5.64102564 C10.6891492,5.64102564 11.2025443,4.36239317 11.2025443,3.06871795 C11.2025443,1.77504274 10.6891492,0.496410257 9.41224344,0.496410257 C8.13533769,0.496410257 7.6219426,1.77504274 7.6219426,3.06871795 C7.6219426,4.36239317 8.13533769,5.64102564 9.41224344,5.64102564 Z" id="Shape"></path>
                        <path d="M13.3746005,6.00205129 L12.9138613,6.00205129 L12.9138613,0.135384615 L14.5856863,0.135384615 C15.0332616,0.135384615 15.4018529,0.165470085 15.7967722,0.451282051 C16.1521996,0.691965812 16.3233314,1.11316239 16.3233314,1.68478632 C16.3233314,2.31658119 15.9284119,2.76786325 15.336033,2.94837607 L15.336033,2.96341881 C15.9942319,3.08376068 16.1258717,3.59521368 16.1916915,4.27213675 C16.2838394,5.21982906 16.2575114,5.65606838 16.468135,6.01709402 L15.9284119,6.01709402 C15.8099361,5.62598291 15.7836082,5.21982906 15.7572803,4.79863248 C15.6519684,3.45982906 15.5861486,3.2191453 14.6515063,3.2191453 L13.3746005,3.2191453 L13.3746005,6.00205129 Z M14.3618988,2.72273504 C15.0200975,2.72273504 15.8231002,2.67760683 15.8231002,1.66974359 C15.8231002,0.541538462 14.9016217,0.616752137 14.4145547,0.616752137 L13.3746005,0.616752137 L13.3746005,2.7076923 L14.3618988,2.7076923 L14.3618988,2.72273504 Z" id="Shape"></path>
                        <polygon id="Path" points="17.626565 6.00205129 17.626565 0.135384615 18.0873042 0.135384615 18.0873042 5.50564102 20.6674436 5.50564102 20.6674436 5.98700855 17.626565 5.98700855"></polygon>
                        <path d="M22.9053197,0.135384615 C24.5903088,0.135384615 25.5512791,1.12820513 25.5512791,3.06871795 C25.5512791,5.00923077 24.5903088,6.00205129 22.9053197,6.00205129 L21.5231022,6.00205129 L21.5231022,0.135384615 L22.9053197,0.135384615 Z M23.0237955,5.52068376 C24.471833,5.52068376 25.0510479,4.55794872 25.0510479,3.06871795 C25.0510479,1.33880342 24.1558976,0.571623931 22.7078601,0.616752137 L21.9838413,0.616752137 L21.9838413,5.50564102 L23.0237955,5.50564102 L23.0237955,5.52068376 Z" id="Shape"></path>
                        <polygon id="Path" points="28.6579775 6.00205129 28.6579775 0.135384615 31.5540526 0.135384615 31.5540526 0.616752137 29.1187168 0.616752137 29.1187168 2.69264957 31.4619047 2.69264957 31.4619047 3.1740171 29.1055528 3.1740171 29.1055528 5.98700855 28.6579775 5.98700855"></polygon>
                        <path d="M33.0810738,0.135384615 L33.0810738,3.92615384 C33.1205657,4.99418804 33.6471248,5.62598291 34.4896194,5.62598291 C35.3321139,5.62598291 35.8718369,4.9791453 35.8981648,3.92615384 L35.8981648,0.135384615 L36.3589041,0.135384615 L36.3589041,3.94119659 C36.3457401,5.20478633 35.7270332,6.12239316 34.4764553,6.12239316 C33.2258776,6.12239316 32.6203347,5.18974359 32.5940066,3.94119659 L32.5940066,0.135384615 L33.0810738,0.135384615 Z" id="Path"></path>
                        <polygon id="Path" points="37.7806135 6.00205129 37.7806135 0.135384615 40.8346561 0.135384615 40.8346561 0.616752137 38.2545167 0.616752137 38.2545167 2.72273504 40.7425084 2.72273504 40.7425084 3.20410257 38.2545167 3.20410257 38.2545167 5.50564102 40.9399681 5.50564102 40.9399681 5.98700855 37.7806135 5.98700855"></polygon>
                        <polygon id="Path" points="42.1115619 6.00205129 42.1115619 0.135384615 42.5723012 0.135384615 42.5723012 5.50564102 45.1524406 5.50564102 45.1524406 5.98700855 42.1115619 5.98700855"></polygon>
                    </g>
                    <g transform="translate(0.000000, 8.400000)">
                        <path d="M3.1856824,2.13606838 C3.15935445,1.94051283 3.10669854,1.09811966 2.35635186,1.09811966 C1.54018529,1.09811966 1.19792189,2.07589743 1.19792189,3.27931624 C1.19792189,3.62529915 1.19792189,5.29504273 2.27736799,5.29504273 C2.73810719,5.29504273 3.1856824,4.96410257 3.19884638,4.18188035 L4.35727633,4.18188035 C4.33094838,4.52786324 4.30462043,5.06940171 3.89653714,5.56581197 C3.43579796,6.10735042 2.86974695,6.22769231 2.39584379,6.22769231 C0.631870888,6.22769231 0.0526559074,4.73846153 0.0526559074,3.27931624 C0.0526559074,1.41401709 0.96097031,0.180512821 2.40900776,0.180512821 C3.5279458,0.180512821 4.3177844,0.962735043 4.3177844,2.13606838 L3.1856824,2.13606838 Z" id="Path"></path>
                        <path d="M8.24064951,0.105299145 C8.79353654,0.105299145 9.54388321,0.255726496 10.0441143,0.902564103 C10.5970014,1.60957265 10.7023132,2.54222223 10.7023132,3.11384615 C10.7023132,3.97128206 10.4785256,4.87384615 10.0572783,5.41538462 C9.49122731,6.15247863 8.66189677,6.25777778 8.22748553,6.25777778 C7.55612271,6.25777778 6.87159591,6.01709402 6.41085672,5.46051282 C5.84480572,4.78358975 5.77898584,3.80581197 5.77898584,3.2642735 C5.76582186,1.68478632 6.38452878,0.105299145 8.24064951,0.105299145 Z M7.30600715,4.84376068 C7.46397487,5.08444444 7.72725441,5.31008547 8.24064951,5.31008547 C8.68822471,5.31008547 8.99099618,5.12957264 9.20161981,4.76854701 C9.37275151,4.48273504 9.54388321,4.01641026 9.54388321,3.08376068 C9.54388321,2.79794872 9.51755526,2.39179487 9.41224344,2.03076923 C9.20161981,1.30871795 8.76720859,0.992820513 8.24064951,0.992820513 C7.83256623,0.992820513 7.5034668,1.18837607 7.29284317,1.48923076 C7.00323568,1.89538461 6.91108784,2.52717949 6.91108784,3.18905983 C6.92425182,3.76068377 7.00323568,4.39247864 7.30600715,4.84376068 Z" id="Shape"></path>
                        <polygon id="Path" points="12.4399581 0.225641025 14.0327993 0.225641025 15.95474 4.84376068 15.95474 0.225641025 16.9815301 0.225641025 16.9815301 6.09230769 15.4676728 6.09230769 13.4799123 1.21846154 13.4799123 6.09230769 12.4399581 6.09230769"></polygon>
                        <polygon id="Path" points="20.0224088 1.2034188 18.4953875 1.2034188 18.4953875 0.225641025 22.6552041 0.225641025 22.6552041 1.2034188 21.1281829 1.2034188 21.1281829 6.10735042 20.0224088 6.10735042"></polygon>
                        <path d="M24.0900776,0.225641025 L26.0646742,0.225641025 C26.6307251,0.21059829 27.2099402,0.21059829 27.6180235,0.616752137 C27.9339589,0.932649572 28.0655986,1.36888889 28.0655986,1.74495727 C28.0655986,2.84307692 27.2362681,3.09880341 26.9861525,3.18905983 C27.7628272,3.2642735 27.8154831,3.7757265 27.9076309,4.54290598 C27.9866147,5.2348718 28.0261067,5.52068376 28.0655986,5.68615384 C28.1182545,5.94188034 28.1709105,6.01709402 28.2235663,6.10735042 L27.0124805,6.10735042 C26.9598246,5.77641026 26.8018569,4.30222222 26.736037,4.06153846 C26.6307251,3.73059828 26.3674456,3.73059828 26.18315,3.73059828 L25.2221797,3.73059828 L25.2221797,6.10735042 L24.0900776,6.10735042 L24.0900776,0.225641025 Z M25.1826877,2.78290599 L26.0646742,2.78290599 C26.1963139,2.78290599 26.4464295,2.78290599 26.6307251,2.6174359 C26.709709,2.55726496 26.9203326,2.34666667 26.9203326,1.94051283 C26.9203326,1.54940171 26.7492009,1.35384615 26.6438891,1.27863248 C26.4727574,1.14324786 26.2621339,1.14324786 25.9198704,1.14324786 L25.1826877,1.14324786 L25.1826877,2.78290599 Z" id="Shape"></path>
                        <path d="M32.5413508,0.225641025 L34.3316517,6.09230769 L33.2258776,6.09230769 L32.8572862,4.82871795 L30.8300338,4.82871795 L30.4482784,6.09230769 L29.3951603,6.09230769 L31.251281,0.225641025 L32.5413508,0.225641025 Z M32.5676787,3.88102564 L31.856824,1.38393162 L31.0933133,3.88102564 L32.5676787,3.88102564 Z" id="Shape"></path>
                        <path d="M38.649436,2.13606838 C38.6231081,1.94051283 38.5704521,1.09811966 37.8201055,1.09811966 C37.003939,1.09811966 36.6616755,2.07589743 36.6616755,3.27931624 C36.6616755,3.62529915 36.6616755,5.29504273 37.7411216,5.29504273 C38.2018608,5.29504273 38.649436,4.96410257 38.6626,4.18188035 L39.82103,4.18188035 C39.794702,4.52786324 39.7683741,5.06940171 39.3602907,5.56581197 C38.8995516,6.10735042 38.3335006,6.22769231 37.8595974,6.22769231 C36.0956245,6.22769231 35.5164095,4.73846153 35.5164095,3.27931624 C35.5164095,1.41401709 36.4247239,0.180512821 37.8727614,0.180512821 C38.9916995,0.180512821 39.7815381,0.962735043 39.7815381,2.13606838 L38.649436,2.13606838 Z" id="Path"></path>
                        <polygon id="Path" points="42.5591372 1.2034188 41.0321158 1.2034188 41.0321158 0.225641025 45.1919326 0.225641025 45.1919326 1.2034188 43.6649112 1.2034188 43.6649112 6.10735042 42.5591372 6.10735042"></polygon>
                    </g>
                </g>
                <g id="Group-7" transform="translate(-0.000000, 0.000000)">
                    <g id="Path" transform="translate(0.000000, 0.222222)">
                        <path d="M22.9490384,6.10923976 L22.9490384,3.83157894 C22.9490384,1.72421052 21.6689384,0 20.1105558,0 L3.02400424,0 C1.46562169,0 0.185521733,1.72421052 0.185521733,3.83157894 L0.185521733,6.13052631 L11.5023474,9.23836258 L22.9490384,6.10923976 Z"></path>
                        <polygon fill="#FFFFFF" fill-rule="nonzero" points="22.9490384 10.068538 22.9490384 6.10923976 11.5023474 9.23836258 0.16696956 6.10923976 0.16696956 10.0898246 11.5023474 13.1976608"></polygon>
                    </g>
                    <path d="M20.1981542,0.739957717 C21.5662323,0.739957717 22.6872965,1.98731502 22.6872965,3.50951374 L22.6872965,16.4904863 C22.6872965,18.0126849 21.5662323,19.2600423 20.1981542,19.2600423 L3.15418024,19.2600423 C1.78610206,19.2600423 0.665038002,18.0126849 0.665038002,16.4904863 L0.665038002,3.50951374 C0.665038002,1.98731502 1.78610206,0.739957717 3.15418024,0.739957717 L20.1981542,0.739957717 Z M20.1981542,0 L3.15418024,0 C1.42508143,0 0,1.58562368 0,3.50951374 L0,16.4904863 C0,18.4143763 1.42508143,20 3.15418024,20 L20.1791531,20 C21.9082519,20 23.3333333,18.4143763 23.3333333,16.4904863 L23.3333333,3.50951374 C23.3333333,1.58562368 21.927253,0 20.1981542,0 Z" id="Shape" fill="#FFFFFF" fill-rule="nonzero"></path>
                </g>
            </g>
        </g>
    </g>
</svg>