<svg id="Layer_1" data-name="Layer 1" xmlns="http://www.w3.org/2000/svg" viewBox="0 0 123 24"><defs><style>.cls-1{fill:#fff;}.cls-2{fill:none;}</style></defs><title>All Card Bugs 133X24_Black</title><path class="cls-1" d="M39.5,10.6H38.24L35.66.7h.94l2.31,9h0l2.9-9h1.08l3,9h0l2.29-9h.87L46.5,10.6H45.28l-2.92-9h0Z"/><path class="cls-1" d="M53.81,10.81c-2.83,0-4.41-2.07-4.41-5.16S51,.5,53.81.5s4.42,2.07,4.42,5.15S56.65,10.81,53.81,10.81Zm0-.83c2.47,0,3.46-2.16,3.46-4.33s-1-4.33-3.46-4.33-3.45,2.17-3.45,4.33S51.35,10,53.81,10Z"/><path class="cls-1" d="M60.77,10.6h-.89V.7h3.23a4,4,0,0,1,2.33.53,2.22,2.22,0,0,1,1,2.06,2.24,2.24,0,0,1-1.91,2.13v0c1.26.2,1.54,1,1.66,2.2.18,1.61.12,2.35.52,2.95h-1a8.37,8.37,0,0,1-.34-2.06c-.2-2.26-.34-2.65-2.14-2.65H60.77Zm1.9-5.54c1.27,0,2.83-.08,2.83-1.77,0-1.9-1.78-1.76-2.73-1.76h-2V5.06Z"/><path class="cls-1" d="M69,10.6V.7h.9V9.78h5v.82Z"/><path class="cls-1" d="M79.16.7c3.25,0,5.1,1.68,5.1,5s-1.85,4.95-5.1,4.95H76.49V.7Zm.22,9.08c2.78,0,3.92-1.63,3.92-4.13,0-2.92-1.71-4.21-4.53-4.12H77.38V9.78Z"/><path class="cls-1" d="M88.84,10.6V.7h5.59v.83h-4.7V5h4.54v.82H89.73V10.6Z"/><path class="cls-1" d="M97,.7V7.1a2.73,2.73,0,1,0,5.46,0V.7h.89V7.12a3.62,3.62,0,1,1-7.24,0V.7Z"/><path class="cls-1" d="M105.09,10.6V.7H111v.83h-5V5.08h4.8V5.9H106V9.78h5.2v.82Z"/><path class="cls-1" d="M113.1,10.6V.7H114V9.78h5v.82Z"/><path class="cls-1" d="M42,16.42c0-.34-.16-1.74-1.6-1.74s-2.24,1.64-2.24,3.69c0,.59,0,3.4,2.07,3.4A1.75,1.75,0,0,0,42,19.89h2.23a3.4,3.4,0,0,1-.89,2.33,3.91,3.91,0,0,1-2.89,1.11c-3.41,0-4.53-2.52-4.53-5,0-3.14,1.76-5.22,4.54-5.22,2.17,0,3.69,1.32,3.69,3.29Z"/><path class="cls-1" d="M50,13a4.62,4.62,0,0,1,3.48,1.34,5.74,5.74,0,0,1,1.26,3.73,6.08,6.08,0,0,1-1.25,3.88,4.71,4.71,0,0,1-3.52,1.41A4.78,4.78,0,0,1,46.41,22a5.44,5.44,0,0,1-1.22-3.7C45.19,15.65,46.38,13,50,13Zm-1.8,8a2.37,2.37,0,0,0,3.65-.12A4.77,4.77,0,0,0,52.47,18a5.53,5.53,0,0,0-.25-1.76A2.3,2.3,0,0,0,50,14.5a2.24,2.24,0,0,0-1.82.84,4.6,4.6,0,0,0-.73,2.88A4.53,4.53,0,0,0,48.15,21Z"/><path class="cls-1" d="M56.27,13.19h3.07L63.05,21V13.19h2V23.1H62.11l-3.84-8.23V23.1h-2Z"/><path class="cls-1" d="M69.09,14.83h-3V13.19h8v1.64h-3V23.1H69.09Z"/><path class="cls-1" d="M75.15,13.19H79a4.28,4.28,0,0,1,3,.67,2.48,2.48,0,0,1-1.2,4.33c1.49.14,1.6,1,1.78,2.27a18.49,18.49,0,0,0,.3,1.92,1.86,1.86,0,0,0,.3.72H80.79c-.1-.55-.4-3.06-.54-3.45-.19-.56-.71-.56-1.07-.56H77.32v4H75.15Zm2.1,4.33H79a1.74,1.74,0,0,0,1.09-.28,1.37,1.37,0,0,0,.55-1.15A1.22,1.22,0,0,0,80.07,15a2.32,2.32,0,0,0-1.39-.23H77.25Z"/><path class="cls-1" d="M89.65,13.19l3.44,9.91H91L90.24,21H86.32l-.74,2.14h-2l3.57-9.91Zm0,6.16-1.37-4.22-1.47,4.22Z"/><path class="cls-1" d="M99.63,16.42c0-.34-.17-1.74-1.6-1.74-1.58,0-2.24,1.64-2.24,3.69,0,.59,0,3.4,2.07,3.4a1.75,1.75,0,0,0,1.78-1.88h2.24a3.4,3.4,0,0,1-.89,2.33,3.92,3.92,0,0,1-2.9,1.11c-3.41,0-4.52-2.52-4.52-5,0-3.14,1.76-5.22,4.54-5.22,2.16,0,3.68,1.32,3.68,3.29Z"/><path class="cls-1" d="M105.39,14.83h-3V13.19h8v1.64h-3V23.1h-2.14Z"/><path class="cls-2" d="M15.73,15.61.22,11.88v7.43c0,2.5,1.75,4.55,3.89,4.55h23.4c2.14,0,3.9-2.05,3.9-4.55V11.88Z"/><path class="cls-2" d="M31.41,7.15V4.42c0-2.5-1.76-4.56-3.9-4.56H4.11C2-.14.22,1.92.22,4.42V7.16l15.51,3.72Z"/><polygon class="cls-1" points="31.41 11.88 31.41 7.15 15.73 10.88 0.22 7.16 0.22 11.88 15.73 15.61 31.41 11.88"/><path class="cls-1" d="M27.19.83a3.26,3.26,0,0,1,3.25,3.25V19.65a3.26,3.26,0,0,1-3.25,3.25H4.43a3.25,3.25,0,0,1-3.24-3.25V4.08A3.25,3.25,0,0,1,4.43.83H27.19m0-1H4.43A4.23,4.23,0,0,0,.22,4.08V19.65a4.22,4.22,0,0,0,4.21,4.21H27.19a4.23,4.23,0,0,0,4.22-4.21V4.08A4.23,4.23,0,0,0,27.19-.14Z"/></svg>