<svg id="Layer_1" data-name="Layer 1" xmlns="http://www.w3.org/2000/svg" viewBox="0 0 123 24"><defs><style>.cls-1{fill:none;}.cls-2,.cls-3{fill:#fff;}.cls-2{fill-rule:evenodd;}</style></defs><title>All Card Bugs 133X24_Black</title><path class="cls-1" d="M15.51,15.74,0,12v7.42C0,22,1.75,24,3.89,24h23.4c2.14,0,3.89-2.05,3.89-4.56V12Z"/><path class="cls-1" d="M31.18,7.29V4.56C31.18,2.05,29.43,0,27.29,0H3.89C1.75,0,0,2.05,0,4.56V7.29L15.51,11Z"/><path class="cls-2" d="M27,0H4.21A4.23,4.23,0,0,0,0,4.21V7.29L15.51,11,31.18,7.29V4.21A4.22,4.22,0,0,0,27,0Z"/><path class="cls-2" d="M0,12v7.77A4.23,4.23,0,0,0,4.21,24H27a4.22,4.22,0,0,0,4.21-4.21V12L15.51,15.74Z"/><path class="cls-3" d="M27,1a3.25,3.25,0,0,1,3.25,3.24V19.79A3.25,3.25,0,0,1,27,23H4.21A3.24,3.24,0,0,1,1,19.79V4.21A3.24,3.24,0,0,1,4.21,1H27m0-1H4.21A4.23,4.23,0,0,0,0,4.21V19.79A4.23,4.23,0,0,0,4.21,24H27a4.22,4.22,0,0,0,4.21-4.21V4.21A4.22,4.22,0,0,0,27,0Z"/><path class="cls-3" d="M39.21,10.63H38L35.38.74h.94l2.3,9h0l2.89-9h1.09l3,9h0L48,.74h.86l-2.6,9.89H45l-2.92-9h0Z"/><path class="cls-3" d="M53.53,10.84c-2.84,0-4.41-2.07-4.41-5.16S50.69.53,53.53.53s4.41,2.07,4.41,5.15S56.37,10.84,53.53,10.84Zm0-.82C56,10,57,7.85,57,5.68s-1-4.33-3.46-4.33-3.45,2.17-3.45,4.33S51.06,10,53.53,10Z"/><path class="cls-3" d="M60.49,10.63H59.6V.74h3.23a4,4,0,0,1,2.33.52,2.22,2.22,0,0,1,1,2.07,2.22,2.22,0,0,1-1.9,2.12v0c1.26.2,1.53,1,1.66,2.21.18,1.6.12,2.34.52,2.94h-1a7.85,7.85,0,0,1-.34-2.05c-.21-2.26-.34-2.66-2.14-2.66H60.49Zm1.9-5.53c1.26,0,2.82-.09,2.82-1.77,0-1.91-1.78-1.77-2.72-1.77h-2V5.1Z"/><path class="cls-3" d="M68.7,10.63V.74h.89V9.81h5v.82Z"/><path class="cls-3" d="M78.88.74C82.12.74,84,2.41,84,5.68s-1.86,5-5.1,5H76.2V.74Zm.22,9.07C81.88,9.81,83,8.18,83,5.68c0-2.91-1.72-4.2-4.53-4.12h-1.4V9.81Z"/><path class="cls-3" d="M88.56,10.63V.74h5.59v.82h-4.7v3.5H94v.82H89.45v4.75Z"/><path class="cls-3" d="M96.76.74v6.4a2.73,2.73,0,1,0,5.46,0V.74h.89V7.15a3.62,3.62,0,1,1-7.24,0V.74Z"/><path class="cls-3" d="M104.81,10.63V.74h5.88v.82h-5V5.11h4.8v.82h-4.8V9.81h5.2v.82Z"/><path class="cls-3" d="M112.82,10.63V.74h.89V9.81h5v.82Z"/><path class="cls-3" d="M38.79,13.19v6c0,1.07.08,2.41,2.13,2.41a2.18,2.18,0,0,0,1.9-.85A2.81,2.81,0,0,0,43.13,19V13.19h2V19.3c0,2.91-2.31,3.85-4.29,3.85a4.25,4.25,0,0,1-3.69-1.7,4.17,4.17,0,0,1-.5-2.41V13.19Z"/><path class="cls-3" d="M48.72,13.2l2.56,7.68,2.57-7.68h2.07L52.32,23H50l-3.6-9.76Z"/><path class="cls-3" d="M59.75,23a5.31,5.31,0,0,1-.07-.94,2.64,2.64,0,0,1-3.75.56,2.11,2.11,0,0,1-.6-1.51A2.27,2.27,0,0,1,56.78,19a7.14,7.14,0,0,1,2.71-.38,2.72,2.72,0,0,0-.09-.91.94.94,0,0,0-.9-.57.92.92,0,0,0-.76.38,1,1,0,0,0-.15.61h-2a1.89,1.89,0,0,1,.77-1.61,3.58,3.58,0,0,1,2.08-.56,3.3,3.3,0,0,1,2.43.88,2.73,2.73,0,0,1,.48,1.68v2.75A8.41,8.41,0,0,0,61.56,23Zm-2.47-2.12a.94.94,0,0,0,1,1,1.16,1.16,0,0,0,.85-.39,2.56,2.56,0,0,0,.38-1.7C58.2,19.63,57.28,20,57.28,20.84Z"/><path class="cls-3" d="M63.11,13.18h2.14v1.74H63.11Zm.07,2.92h2V23h-2Z"/><path class="cls-3" d="M67,17.8c0-.33-.06-1.32-.1-1.71h1.89l0,1.31a2,2,0,0,1,2.33-1.32v1.8c-2-.19-2.16.85-2.16,1.7V23H67Z"/></svg>