<?xml version="1.0" encoding="UTF-8"?>
<svg width="72px" height="20px" viewBox="0 0 72 20" version="1.1" xmlns="http://www.w3.org/2000/svg" xmlns:xlink="http://www.w3.org/1999/xlink">
    <!-- Generator: Sketch 57.1 (83088) - https://sketch.com -->
    <title>Group 6</title>
    <desc>Created with Sketch.</desc>
    <g id="Card-Bug-Exploration" stroke="none" stroke-width="1" fill="none" fill-rule="evenodd">
        <g id="Group-11" transform="translate(-183.000000, -867.000000)">
            <g id="Group-6" transform="translate(183.000000, 867.000000)">
                <g id="Group-3" transform="translate(25.000000, 4.000000)" fill="#FFFFFF" fill-rule="nonzero">
                    <polygon id="Path" points="2.43300814 5.77036008 1.74866752 5.77036008 0.360824742 0.240549828 0.869974165 0.240549828 2.11136805 5.26984135 2.12779223 5.26984135 3.68945753 0.243385628 4.27388442 0.243385628 5.89850905 5.27267715 5.91356454 5.27267715 7.14537766 0.243385628 7.61072929 0.243385628 6.20646233 5.77319588 5.54949533 5.77319588 3.97824927 0.756665451 3.96319377 0.756665451"></polygon>
                    <path d="M9.94806333,6.0137457 C8.44587568,6.0137457 7.61072929,4.85484062 7.61072929,3.12714777 C7.61072929,1.39945491 8.44587568,0.240549828 9.94806333,0.240549828 C11.450251,0.240549828 12.2880871,1.39945491 12.2880871,3.12714777 C12.2880871,4.85484062 11.4515958,6.0137457 9.94806333,6.0137457 Z M9.94806333,5.55302761 C11.255249,5.55302761 11.7783922,4.34008769 11.7783922,3.12714777 C11.7783922,1.91420784 11.255249,0.701267923 9.94806333,0.701267923 C8.64087766,0.701267923 8.11907927,1.91420784 8.11907927,3.12714777 C8.11907927,4.34008769 8.6422225,5.55302761 9.94806333,5.55302761 Z" id="Shape"></path>
                    <path d="M13.9438717,5.77319588 L13.4574265,5.77319588 L13.4574265,0.240549828 L15.2230424,0.240549828 C15.6942429,0.240549828 16.0836763,0.271759626 16.4952838,0.531368403 C16.8694724,0.761186008 17.0496373,1.15982025 17.0496373,1.68754956 C17.0496373,2.28479161 16.6338721,2.71463565 16.0102244,2.87494052 L16.0102244,2.89054542 C16.7031663,3.00545423 16.8486841,3.48069433 16.9152065,4.12333245 C17.0122184,5.01990484 16.9831148,5.43272535 17.1993127,5.77035862 L16.6380298,5.77035862 C16.5276077,5.39716903 16.464723,5.01094648 16.4509355,4.6212706 C16.3386789,3.35727377 16.265227,3.13596793 15.2840213,3.13596793 L13.9452576,3.13596793 L13.9438717,5.77319588 Z M14.9832845,2.67916997 C15.6762264,2.67916997 16.5243873,2.63235527 16.5243873,1.68613094 C16.5243873,0.622160543 15.5542687,0.693091902 15.0359481,0.693091902 L13.9438717,0.693091902 L13.9438717,2.67916997 L14.9832845,2.67916997 Z" id="Shape"></path>
                    <polygon id="Path" points="18.60252 5.77319588 18.60252 0.240549828 19.0644851 0.240549828 19.0644851 5.31356067 21.6428026 5.31356067 21.6428026 5.77319588"></polygon>
                    <path d="M23.7925382,0.243387083 C25.5514754,0.243387083 26.5540283,1.1782624 26.5540283,3.00829148 C26.5540283,4.83832056 25.5514754,5.77319588 23.7925382,5.77319588 L22.3444063,5.77319588 L22.3444063,0.240549828 L23.7925382,0.243387083 Z M23.9108092,5.31356067 C25.4235777,5.31356067 26.034186,4.40280201 26.034186,3.00829148 C26.034186,1.37687021 25.1058963,0.657626223 23.5835011,0.703022293 L22.8271169,0.703022293 L22.8271169,5.31356067 L23.9108092,5.31356067 Z" id="Shape"></path>
                    <polygon id="Path" points="29.8281787 5.77319588 29.8281787 0.240549828 32.8684612 0.240549828 32.8684612 0.703022293 30.31186 0.703022293 30.31186 2.65647194 32.7813986 2.65647194 32.7813986 3.11610715 30.31186 3.11610715 30.31186 5.77319588"></polygon>
                    <path d="M34.2934066,0.481099656 L34.2934066,3.98645293 C34.3310584,4.97089963 34.8958358,5.5632362 35.7925071,5.5632362 C36.6891784,5.5632362 37.2525613,4.97089963 37.2902131,3.98645293 L37.2902131,0.481099656 L37.7796869,0.481099656 L37.7796869,3.99340524 C37.7643473,5.15722146 37.1089266,6.0137457 35.7925071,6.0137457 C34.4760876,6.0137457 33.8206669,5.15722146 33.8039328,3.99340524 L33.8039328,0.481099656 L34.2934066,0.481099656 Z" id="Path"></path>
                    <polygon id="Path" points="39.1828942 5.77319588 39.1828942 0.240549828 42.3464038 0.240549828 42.3464038 0.703022293 39.662338 0.703022293 39.662338 2.68910036 42.2439585 2.68910036 42.2439585 3.14873557 39.662338 3.14873557 39.662338 5.31356067 42.4570447 5.31356067 42.4570447 5.77319588"></polygon>
                    <polygon id="Path" points="43.6263841 5.77319588 43.6263841 0.240549828 44.0881492 0.240549828 44.0881492 5.31356067 46.6666667 5.31356067 46.6666667 5.77319588"></polygon>
                    <path d="M1.93047166,7.21649485 L1.93047166,10.5287563 C1.93047166,11.1233009 1.97295499,11.868595 3.04433124,11.868595 C3.22223015,11.868595 3.75327167,11.8615506 4.03737888,11.3952135 C4.14358718,11.2289664 4.20067414,11.0176354 4.20067414,10.4681748 L4.20067414,7.21649485 L5.2720504,7.21649485 L5.2720504,10.6118799 C5.2720504,12.2306755 4.05862054,12.7491409 3.02308958,12.7491409 C2.51196212,12.7491409 1.57600145,12.6293867 1.09408128,11.8080134 C0.845819369,11.3952135 0.828560519,10.9725515 0.828560519,10.4681748 L0.828560519,7.21649485 L1.93047166,7.21649485 Z" id="Path"></path>
                    <polygon id="Path" points="8.38325498 7.21649485 9.77047988 11.383608 11.1659457 7.21649485 12.2880871 7.21649485 10.3363578 12.5085911 9.10021676 12.5085911 7.14299351 7.21649485"></polygon>
                    <path d="M16.0456944,7.21649485 L17.9009164,12.5085911 L16.7471094,12.5085911 L16.3625071,11.3663529 L14.2485779,11.3663529 L13.8501409,12.5085911 L12.7558228,12.5085911 L14.6843682,7.21649485 L16.0456944,7.21649485 Z M16.0747471,10.5035111 L15.3359786,8.2491658 L14.5446386,10.5035111 L16.0747471,10.5035111 Z" id="Shape"></path>
                    <polygon id="Path" points="19.3041237 7.21649485 20.4734632 7.21649485 20.4734632 12.5085911 19.3041237 12.5085911"></polygon>
                    <path d="M22.5796273,7.21804378 L24.5822761,7.21804378 C25.1614205,7.21119783 25.7459775,7.21119783 26.1654512,7.57677137 C26.4568022,7.83235493 26.6233529,8.20391223 26.6214598,8.59407898 C26.6214598,9.58126444 25.7825123,9.8153958 25.5294749,9.88933202 C26.3183562,9.96189905 26.3751881,10.4151007 26.469908,11.1038029 C26.5497433,11.7254148 26.5930438,11.9814532 26.6282255,12.1279565 C26.6534436,12.2650791 26.7079352,12.3949802 26.7878961,12.5085911 L25.549772,12.5085911 C25.4997058,12.2155846 25.3400352,10.8765175 25.2683187,10.6711391 C25.1668331,10.3712866 24.8921454,10.3712866 24.7040588,10.3712866 L23.7203252,10.3712866 L23.7203252,12.5085911 L22.5782742,12.5085911 L22.5796273,7.21804378 Z M23.6851436,9.53060443 L24.5890418,9.53060443 C24.7905505,9.54661184 24.9916707,9.49513408 25.1614205,9.38410118 C25.3512462,9.23934829 25.4589278,9.00966547 25.4496396,8.76933521 C25.4688773,8.53728631 25.3660848,8.31210117 25.1790114,8.17647626 C25.0058093,8.05188004 24.7960724,8.05188004 24.4415495,8.05188004 L23.689203,8.05188004 L23.6851436,9.53060443 Z" id="Shape"></path>
                </g>
                <g id="Group-2" transform="translate(-0.000000, 0.000000)">
                    <path d="M22.6851852,6.07772177 L22.6851852,3.81048387 C22.6851852,1.71895161 21.4108403,1.82076576e-13 19.8539234,1.82076576e-13 L2.83126182,1.82076576e-13 C1.27434485,1.82076576e-13 1.50990331e-13,1.71048387 1.50990331e-13,3.81048387 L1.50990331e-13,6.08195565 L11.2788754,9.1875 L22.6851852,6.07772177 Z" id="Path"></path>
                    <path d="M19.6212169,1.82076576e-13 L3.06396827,1.82076576e-13 C1.37389016,0.00581224801 0.0050707756,1.57478677 1.50990331e-13,3.51199597 L1.50990331e-13,6.08195565 L11.2788754,9.1875 L22.6851852,6.07772177 L22.6851852,3.51199597 C22.6801144,1.57478677 21.311295,0.00581224801 19.6212169,1.82076576e-13 Z" id="Path" fill="#FFFFFF"></path>
                    <path d="M0,10.0021182 L0,16.485914 C0.0052156549,18.4242761 1.41314416,19.9941843 3.15151022,20 L20.1818231,20 C21.9201892,19.9941843 23.3281177,18.4242761 23.3333333,16.485914 L23.3333333,10 L11.6011289,13.1095107 L0,10.0021182 Z" id="Path" fill="#FFFFFF"></path>
                    <path d="M20.1818231,0.803977573 C21.5205856,0.809795676 22.6036895,2.01893962 22.6057695,3.50999683 L22.6057695,16.4900032 C22.6036775,17.9835302 21.5171127,19.1936924 20.1761242,19.1960224 L3.15151022,19.1960224 C1.81052167,19.1936924 0.723956938,17.9835302 0.721864908,16.4900032 L0.721864908,3.50999683 C0.723956938,2.01646984 1.81052167,0.806307573 3.15151022,0.803977573 L20.1818231,0.803977573 L20.1818231,0.803977573 Z M20.1818231,0 L3.15151022,0 C1.41314416,0.00580893949 0.0052156549,1.57389035 0,3.50999683 L0,16.4900032 C0.0052156549,18.4261096 1.41314416,19.9941911 3.15151022,20 L20.1818231,20 C21.9201892,19.9941911 23.3281177,18.4261096 23.3333333,16.4900032 L23.3333333,3.50999683 C23.3281177,1.57389035 21.9201892,0.00580893949 20.1818231,0 Z" id="Shape" fill="#FFFFFF" fill-rule="nonzero"></path>
                </g>
            </g>
        </g>
    </g>
</svg>