<svg xmlns="http://www.w3.org/2000/svg" width="25" height="25" viewBox="0 0 25 25">
  <path fill="#FFF" fill-rule="nonzero"
        d="M0 2.381A2.385 2.385 0 0 1 2.374 0h20.252A2.374 2.374 0 0 1 25 2.381v15.476a2.388 2.388 0 0 1-2.385 2.381h-5.353L12.5 24.405l-4.762-4.167H2.385A2.379 2.379 0 0 1 0 17.857V2.381zm1.19.036V17.85c0 .664.53 1.198 1.182 1.198h5.783l4.345 3.869 4.345-3.87h5.783c.658 0 1.182-.535 1.182-1.197V2.417a1.19 1.19 0 0 0-1.185-1.197H2.375c-.648 0-1.185.536-1.185 1.197zm3.572 3.535h15.476v1.22H4.762v-1.22zm0 4.762h15.476v1.22H4.762v-1.22z"/>
</svg>
