<?xml version="1.0" encoding="UTF-8"?>
<svg width="19px" height="19px" viewBox="0 0 19 19" version="1.1" xmlns="http://www.w3.org/2000/svg" xmlns:xlink="http://www.w3.org/1999/xlink">
    <title>error_outline-24px copy 19</title>
    <g id="Fuel-Quote-Setup-Modal" stroke="none" stroke-width="1" fill="none" fill-rule="evenodd">
        <g id="Final-Field-Locations---Filled-with-Errors" transform="translate(-308.000000, -403.000000)">
            <g id="error_outline-24px-copy-19" transform="translate(308.000000, 403.000000)">
                <polygon id="Path" points="0 0 19 0 19 19 0 19"></polygon>
                <path d="M9.2,12.4 L10.8,12.4 L10.8,14 L9.2,14 L9.2,12.4 Z M9.2,6 L10.8,6 L10.8,10.8 L9.2,10.8 L9.2,6 Z M9.992,2 C5.576,2 2,5.584 2,10 C2,14.416 5.576,18 9.992,18 C14.416,18 18,14.416 18,10 C18,5.584 14.416,2 9.992,2 Z M10,16.4 C6.464,16.4 3.6,13.536 3.6,10 C3.6,6.464 6.464,3.6 10,3.6 C13.536,3.6 16.4,6.464 16.4,10 C16.4,13.536 13.536,16.4 10,16.4 Z" id="Shape" fill="#FB3A52" fill-rule="nonzero"></path>
            </g>
        </g>
    </g>
</svg>