<?xml version="1.0" encoding="UTF-8"?>
<svg width="118px" height="117px" viewBox="0 0 118 117" version="1.1" xmlns="http://www.w3.org/2000/svg" xmlns:xlink="http://www.w3.org/1999/xlink">
    <title>icon_circle-cross</title>
    <g id="icon_circle-cross" stroke="none" stroke-width="1" fill="none" fill-rule="evenodd">
        <path d="M59,0 C26.55,0 0,26.325 0,58.5 C0,90.675 26.55,117 59,117 C91.45,117 118,90.675 118,58.5 C118,26.325 91.45,0 59,0 L59,0 Z M13,58.5116279 C13,32.9302326 34.2093023,12 60.1317829,12 C70.7364341,12 80.751938,15.4883721 89,21.8837209 L23.0155039,87 C16.5348837,78.8604651 13,68.9767442 13,58.5116279 L13,58.5116279 Z M58.8682171,105 C48.2635659,105 38.248062,101.511628 30,95.1162791 L95.9844961,30 C102.465116,38.1395349 106,48.0232558 106,58.4883721 C106,84.0697674 84.7906977,105 58.8682171,105 L58.8682171,105 Z" id="Shape-Copy" fill="#FFFFFF"></path>
    </g>
</svg>