<svg xmlns="http://www.w3.org/2000/svg" width="24" height="24" viewBox="0 0 24 24">
  <path fill="#FFF" fill-rule="nonzero" stroke="#FFF" stroke-width=".25"
        d="M15 16.5h-.5V11a.5.5 0 0 0-.5-.5h-4c-.827 0-1.5.673-1.5 1.5s.673 1.5 1.5 1.5h.5v3H10c-.827 0-1.5.673-1.5 1.5s.673 1.5 1.5 1.5h5c.827 0 1.5-.673 1.5-1.5s-.673-1.5-1.5-1.5zm0 2h-5a.5.5 0 0 1 0-1h1a.5.5 0 0 0 .5-.5v-4a.5.5 0 0 0-.5-.5h-1a.5.5 0 0 1 0-1h3.5V17a.5.5 0 0 0 .5.5h1a.5.5 0 0 1 0 1zm-3-18C5.659.5.5 5.659.5 12S5.659 23.5 12 23.5 23.5 18.341 23.5 12 18.341.5 12 .5zm0 22C6.21 22.5 1.5 17.79 1.5 12S6.21 1.5 12 1.5 22.5 6.21 22.5 12 17.79 22.5 12 22.5zm0-13c1.378 0 2.5-1.122 2.5-2.5S13.378 4.5 12 4.5A2.503 2.503 0 0 0 9.5 7c0 1.378 1.122 2.5 2.5 2.5zm0-4c.827 0 1.5.673 1.5 1.5s-.673 1.5-1.5 1.5-1.5-.673-1.5-1.5.673-1.5 1.5-1.5z"/>
</svg>
