<?xml version="1.0" encoding="UTF-8"?>
<svg width="24px" height="24px" viewBox="0 0 24 24" version="1.1" xmlns="http://www.w3.org/2000/svg" xmlns:xlink="http://www.w3.org/1999/xlink">
    <!-- Generator: Sketch 52.5 (67469) - http://www.bohemiancoding.com/sketch -->
    <title>settings</title>
    <desc>Created with Sketch.</desc>
    <g id="Page-1" stroke="none" stroke-width="1" fill="none" fill-rule="evenodd" stroke-linecap="round">
        <g id="Artboard-Copy" stroke="#FFFFFF" stroke-width="2">
            <g id="settings" transform="translate(1.000000, 1.000000)">
                <path d="M18.845,12.561 C19.0513986,11.5305672 19.0513986,10.4694328 18.845,9.439 L20.654,7.95 C21.1593505,7.53527866 21.2893734,6.81528208 20.961,6.25 L20.091,4.742 C19.7648993,4.17747084 19.0785333,3.93134331 18.468,4.16 L16.268,4.985 C15.4792732,4.2928425 14.5617605,3.76306387 13.568,3.426 L13.182,1.11 C13.073441,0.470213846 12.5199291,0.00156524885 11.871,-4.4408921e-16 L10.13,-4.4408921e-16 C9.47790146,-0.000544404749 8.92113378,0.470761974 8.814,1.114 L8.428,3.43 C7.43422864,3.76703989 6.51671146,4.29682111 5.728,4.989 L3.528,4.164 C2.91746665,3.93534331 2.23110071,4.18147084 1.905,4.746 L1.035,6.254 C0.706626565,6.81928208 0.836649478,7.53927866 1.342,7.954 L3.151,9.443 C2.94460143,10.4734328 2.94460143,11.5345672 3.151,12.565 L1.346,14.05 C0.840649478,14.4647213 0.710626565,15.1847179 1.039,15.75 L1.909,17.258 C2.23510071,17.8225292 2.92146665,18.0686567 3.532,17.84 L5.732,17.015 C6.52071146,17.7071789 7.43822864,18.2369601 8.432,18.574 L8.818,20.89 C8.92662304,21.5301578 9.48069281,21.9989211 10.13,22 L11.871,22 C12.5227204,22.0000552 13.0789282,21.5288648 13.186,20.886 L13.572,18.57 C14.5657605,18.2329361 15.4832732,17.7031575 16.272,17.011 L18.472,17.836 C19.0825333,18.0646567 19.7688993,17.8185292 20.095,17.254 L20.965,15.746 C21.2933734,15.1807179 21.1633505,14.4607213 20.658,14.046 L18.845,12.561 Z" id="Path"></path>
                <circle id="Oval" cx="11" cy="11" r="3"></circle>
            </g>
        </g>
    </g>
</svg>