<?xml version="1.0" encoding="UTF-8"?>
<svg width="24px" height="24px" viewBox="0 0 24 24" version="1.1" xmlns="http://www.w3.org/2000/svg"
     xmlns:xlink="http://www.w3.org/1999/xlink">
  <!-- Generator: sketchtool 51.1 (57501) - http://www.bohemiancoding.com/sketch -->
  <title>080DEAA2-FF8A-4633-B2CE-13ED13CBF98D</title>
  <desc>Created with sketchtool.</desc>
  <defs></defs>
  <g id="Symbols" stroke="#fff" stroke-width="1" fill="#000" fill-rule="evenodd">
    <g id="Profile" transform="translate(-43.000000, -283.000000)" fill="#000" fill-rule="nonzero" stroke="#FFFFFF"
       stroke-width="0.25">
      <g id="information" transform="translate(43.000000, 283.000000)">
        <path
          d="M15,16.5 L14.5,16.5 L14.5,11 C14.5,10.724 14.276,10.5 14,10.5 L10,10.5 C9.173,10.5 8.5,11.173 8.5,12 C8.5,12.827 9.173,13.5 10,13.5 L10.5,13.5 L10.5,16.5 L10,16.5 C9.173,16.5 8.5,17.173 8.5,18 C8.5,18.827 9.173,19.5 10,19.5 L15,19.5 C15.827,19.5 16.5,18.827 16.5,18 C16.5,17.173 15.827,16.5 15,16.5 Z M15,18.5 L10,18.5 C9.724,18.5 9.5,18.276 9.5,18 C9.5,17.724 9.724,17.5 10,17.5 L11,17.5 C11.276,17.5 11.5,17.276 11.5,17 L11.5,13 C11.5,12.724 11.276,12.5 11,12.5 L10,12.5 C9.724,12.5 9.5,12.276 9.5,12 C9.5,11.724 9.724,11.5 10,11.5 L13.5,11.5 L13.5,17 C13.5,17.276 13.724,17.5 14,17.5 L15,17.5 C15.276,17.5 15.5,17.724 15.5,18 C15.5,18.276 15.276,18.5 15,18.5 Z M12,0.5 C5.659,0.5 0.5,5.659 0.5,12 C0.5,18.341 5.659,23.5 12,23.5 C18.341,23.5 23.5,18.341 23.5,12 C23.5,5.659 18.341,0.5 12,0.5 Z M12,22.5 C6.21,22.5 1.5,17.79 1.5,12 C1.5,6.21 6.21,1.5 12,1.5 C17.79,1.5 22.5,6.21 22.5,12 C22.5,17.79 17.79,22.5 12,22.5 Z M12,9.5 C13.378,9.5 14.5,8.378 14.5,7 C14.5,5.622 13.378,4.5 12,4.5 C10.622,4.5 9.5,5.622 9.5,7 C9.5,8.378 10.622,9.5 12,9.5 Z M12,5.5 C12.827,5.5 13.5,6.173 13.5,7 C13.5,7.827 12.827,8.5 12,8.5 C11.173,8.5 10.5,7.827 10.5,7 C10.5,6.173 11.173,5.5 12,5.5 Z"
          id="Shape"></path>
      </g>
    </g>
  </g>
</svg>
