<svg xmlns="http://www.w3.org/2000/svg" width="30" height="30" viewBox="0 0 30 30">
  <path fill="#FEFEFE" fill-rule="evenodd"
        d="M9.77 24.424h1.221v-1.22H9.77v1.22zm-.609 1.222h2.442a.588.588 0 0 0 .61-.61v-2.442a.587.587 0 0 0-.562-.61H9.159a.586.586 0 0 0-.61.61v2.442a.586.586 0 0 0 .562.61h.05zm-5.495-2.443h1.219v1.222H3.664l.002-1.222zm-.612 2.443h2.443a.588.588 0 0 0 .61-.562v-2.49a.587.587 0 0 0-.562-.61H3.052a.586.586 0 0 0-.609.562v2.49a.586.586 0 0 0 .562.61h.049zm13.19-13.31c-.244.123-1.221-.368-2.32-1.1 1.708.367 2.074.488 2.32.244l3.908-2.075c.244-.122.367-.245.367-.489a.64.64 0 0 0-.244-.489l-3.178-2.442a4.02 4.02 0 0 1 2.32.733l2.443 1.344a.552.552 0 0 0 .611 0l3.785-1.83a2.079 2.079 0 0 1 1.709 0l-11.721 6.104zm12.577-6.839l-.367.488.367-.488a2.794 2.794 0 0 0-3.052-.244L22.35 6.841h-.121L20.028 5.74a5.118 5.118 0 0 0-2.931-.854h-1.832a.673.673 0 0 0-.61.368c-.123.244 0 .488.245.732l3.784 2.808-3.052 1.587a15.294 15.294 0 0 1-1.954-.489c-.733-.123-.854-.244-.854-.244h-1.223a.673.673 0 0 0-.61.365c-.123.245 0 .49.245.733a11.368 11.368 0 0 0 4.885 2.687.915.915 0 0 0 .611-.123l12.089-6.105c.274-.204.451-.513.489-.853a.817.817 0 0 0-.489-.856v.002zm-1.954 22.591h-1.221v-5.496a.586.586 0 0 0-.562-.61h-3.713a.587.587 0 0 0-.612.61v5.496H1.22v-7.327h25.647v7.327zm-4.884 0h2.442v-4.885h-2.442v4.885zM2.443 10.991h.609a.633.633 0 0 0 .489-.244.918.918 0 0 0 .123-.61L2.443 6.595v-1.71h6.106v1.71l-1.221 3.54c-.121.245 0 .368.123.612a.633.633 0 0 0 .489.244h.611v8.55H2.443v-8.55zm14.654 8.55h6.106v-1.222h-6.106v1.221zm10.38 0h-3.052v-1.834a.587.587 0 0 0-.61-.61h-7.327a.588.588 0 0 0-.612.56v1.883H9.77v-9.16a.586.586 0 0 0-.611-.61h-.366l.977-2.81V4.274a.586.586 0 0 0-.609-.61H6.107V.61A.587.587 0 0 0 5.545 0h-.05a.587.587 0 0 0-.61.562v3.102H1.831a.586.586 0 0 0-.609.61V6.96l.977 2.81h-.368a.586.586 0 0 0-.609.61v9.16H.61a.586.586 0 0 0-.609.61v8.548a.585.585 0 0 0 .609.611h26.867a.587.587 0 0 0 .612-.559V20.15a.586.586 0 0 0-.612-.61zm-11.599 3.662h1.219v1.222h-1.221l.002-1.222zm-.611 2.443h2.442a.587.587 0 0 0 .612-.61v-2.442a.586.586 0 0 0-.562-.61h-2.494a.586.586 0 0 0-.61.61v2.442a.586.586 0 0 0 .562.61h.05zM6.718 6.106H4.274a.586.586 0 0 0-.61.612.587.587 0 0 0 .61.611h2.442a.585.585 0 0 0 .612-.559v-.05a.587.587 0 0 0-.558-.613h-.054.002zm-1.832 8.55h1.221v-1.222H4.886v1.221zm1.83-2.443H4.274a.585.585 0 0 0-.61.611v2.442a.587.587 0 0 0 .61.612h2.442a.586.586 0 0 0 .612-.612v-2.444a.587.587 0 0 0-.562-.61l-.05.001z"/>
</svg>
