<?xml version="1.0" encoding="utf-8"?>
<!-- Generator: Adobe Illustrator 24.1.2, SVG Export Plug-In . SVG Version: 6.00 Build 0)  -->
<svg version="1.1" id="Layer_1" xmlns="http://www.w3.org/2000/svg" xmlns:xlink="http://www.w3.org/1999/xlink" x="0px" y="0px"
	 viewBox="0 0 24 18" style="enable-background:new 0 0 24 18;" xml:space="preserve">
<style type="text/css">
	.st0{fill-rule:evenodd;clip-rule:evenodd;fill:#FFFFFF;}
	.st1{fill:#FFFFFF;}
</style>
<g id="Tabbar_x2F_Inactive_x2F_Search">
	<g id="airport-search" transform="translate(5.000000, 5.000000)">
		<g id="Fill-1">
			<path class="st0" d="M-2.4,7.8c0.1,0,0.1,0,0.2,0.1c-0.2-0.5-0.4-0.9-0.6-1.4C-3,6.8-3.2,7.1-3.1,7.2C-3,7.4-2.8,7.6-2.4,7.8"/>
		</g>
		<g id="Stroke-3">
			<path class="st1" d="M-0.6,10.1c-0.9,0-1.8-0.2-2.5-0.4c-1-0.4-1.6-1-1.8-1.8c-0.6-1.9,1-4.1,1-4.2l0.6,0.5c0,0-1.4,2-0.9,3.5
				c0.2,0.6,0.6,1,1.4,1.3c3.3,1.3,9.3-1,12.3-4.6l0.6,0.4C7.5,8,3,10.1-0.6,10.1z"/>
		</g>
		<g id="Fill-5">
			<path class="st0" d="M10.5,9.8c-1,1.1-2.2,1.7-3.6,2.1c0.6-1,1-2,1.4-3.1C9.1,9,9.9,9.2,10.8,9.5C10.7,9.6,10.6,9.6,10.5,9.8z
				 M12.4,4.4h0.4c-0.1,1.6-0.6,3-1.4,4.3c-0.1,0-0.2-0.1-0.3-0.1l-0.4,0.6l-0.4-0.8C9.7,8.3,9.1,8.2,8.6,8C8.2,8.3,7.8,8.6,7.4,8.8
				C7,10,6.4,11,5.8,12.1c-0.2,0.1-0.4,0.1-0.6,0.1v-2.1c-0.2,0.1-0.6,0.2-0.8,0.3v1.8c-0.1,0-0.2,0-0.2,0c-0.5-0.4-0.9-0.8-1.3-1.3
				C2.6,11,2.4,11,2,11.1c0.2,0.2,0.5,0.6,0.7,0.8c-0.6-0.2-1.1-0.4-1.6-0.7c-0.5,0-1,0.1-1.4,0.1c1.5,1.1,3.3,1.6,5,1.6
				c2.2,0,4.5-0.9,6.2-2.6c1.7-1.7,2.5-3.9,2.5-6.4c0-0.2,0-0.3,0-0.5L12.4,4.4z"/>
		</g>
		<g id="Fill-7">
			<path class="st0" d="M1.1-0.2c1,0.2,2,0.4,3,0.4c0.1,0,0.2,0,0.3,0v3.4H0.3C0.3,2.3,0.6,1.1,1.1-0.2 M-0.9-1.7L-0.9-1.7
				c1-1.1,2.1-1.7,3.3-2.1C1.7-3,1.1-2.1,0.6-1.2C0.1-1.2-0.4-1.5-0.9-1.7 M3.9-4.2c0.2,0,0.3,0,0.6,0v3.6c-1,0-2.1-0.1-3-0.3
				C2-2.1,2.8-3.2,3.9-4.2 M1.1,7.9C0.6,6.8,0.4,5.6,0.3,4.4h4.1v2.5C4.7,6.7,5,6.6,5.2,6.5v-2h1.5l-2-0.9l0.5-0.3v-3
				C6,0.1,6.7,0,7.5-0.3C7.7,0.5,7.9,1.2,8,2h0.8C8.7,1.1,8.5,0.3,8.3-0.4c0.1,0,0.1-0.1,0.2-0.1c-0.6-0.2-1-0.2-1.6-0.4
				c-0.6,0.1-1,0.2-1.6,0.2v-0.6L4.9-1.3l0.3-0.3v-2.5c0.1,0,0.2,0,0.2,0C5.8-3.8,6-3.4,6.3-3l0.6-0.6l0,0C6.7-3.7,6.7-3.9,6.6-4
				C6.7-3.9,7-3.9,7.1-3.9C7.3-4,7.5-4.1,7.7-4.1c0.1,0,0.2,0,0.2,0s0.1,0,0.2,0c0.1,0,0.2,0,0.2,0L8.7-4C7.1-4.8,5.3-5.2,3.6-4.9
				C1.7-4.7,0-3.8-1.4-2.4c-0.1,0.1-0.6,0.6-0.6,0.6c-1.3,1.6-1.8,3.4-1.9,4.6l-0.1,0.8h0.8C-3,2-2.5,0.2-1.5-1.1
				c0.6,0.2,1.2,0.5,1.8,0.7c-0.5,1.2-0.8,2.6-0.8,3.9h-3.4l0.2,0.8h3.3c0.1,1.2,0.3,2.5,0.8,3.7C0.5,8,0.9,8,1.1,7.9"/>
		</g>
		<g id="Fill-9">
			<path class="st0" d="M9.2,4.3L7,3.3l0,0c0.2-0.1,0.2-0.2,0.4-0.2c0.2-0.1,0.3-0.1,0.5-0.1h2.2l2.6-3.3h-0.1c0,0-1.4-0.4-1.5-0.5
				C9.8-1.1,8.3-1.5,6.9-1.8H6.8l0.6-0.7l0,0l0.2-0.2L7.7-3l0,0C7.8-3,7.9-3,7.9-3H8l6.5,0.8l0.2-0.2c0.4-0.3,0.7-0.7,1.1-0.9
				c0.5-0.4,1-0.7,1.5-1.1c0.2-0.1,0.3-0.2,0.5-0.2c0.1-0.1,0.2-0.1,0.3-0.1c0.1,0,0.2,0,0.3,0h0.1c0.2,0,0.2,0.1,0.3,0.2
				S19-4.3,19-4.3s0,0.2,0,0.2c0,0.2-0.1,0.5-0.1,0.7c-0.1,0.1-0.2,0.2-0.2,0.4c-0.3,0.4-0.6,0.8-1,1.2c-0.3,0.3-0.6,0.6-0.9,0.8
				l-0.3,0.2v0.4c0.1,0.4,0.1,0.9,0.2,1.3l0.1,0.6c0.1,0.6,0.1,0.8,0.2,1.1s0.1,0.6,0.2,1.2l0.2,0.9c0.1,0.4,0.1,0.7,0.2,1.1
				c0,0.2,0,0.2,0,0.3c0,0.1-0.1,0.2-0.2,0.2l-0.1,0.1c-0.2,0.2-0.6,0.4-0.8,0.7l-0.1,0.1V7.1c-0.3-1.4-0.7-2.8-1.1-4.2
				c-0.1-0.2-0.5-1.5-0.5-1.5V1.4L11.2,4l-0.1,2.4c0,0.1-0.1,0.2-0.2,0.4c-0.1,0.1-0.1,0.2-0.2,0.3v0.1l-1-2.4"/>
		</g>
	</g>
</g>
</svg>
