<svg xmlns="http://www.w3.org/2000/svg" width="32" height="31" viewBox="0 0 32 31">
  <path fill="#FEFEFE" fill-rule="evenodd"
        d="M30.588 28.72a.893.893 0 0 1-.83.83H2.368a.893.893 0 0 1-.83-.83V15.025h29.05V28.72zM3.612 12.638v1.349H2.255l1.357-1.35zM4.65 6.726A1.977 1.977 0 0 1 6.518 4.65h4.763a1.664 1.664 0 0 1 1.66 1.452l.209.62A3.022 3.022 0 0 0 16.055 8.8H25.6a1.755 1.755 0 0 1 1.868 1.868v3.319H4.652L4.65 6.726zm3.736-5.188h15.252a1.978 1.978 0 0 1 1.867 2.077v4.157h-9.442a1.877 1.877 0 0 1-1.868-1.452l-.208-.53a2.843 2.843 0 0 0-2.706-2.178H6.518a1.978 1.978 0 0 1 1.868-2.074zm20.128 11.11l1.349 1.349h-1.35v-1.35zm3.112 1.756a.365.365 0 0 0-.103-.21l-3.01-3.008v-.518a2.714 2.714 0 0 0-1.866-2.698V3.612A3.01 3.01 0 0 0 23.744.5H8.386A3.01 3.01 0 0 0 5.48 3.609v.211a3.137 3.137 0 0 0-1.868 2.906v4.46l-3.01 3.009-.102.096v14.422a1.86 1.86 0 0 0 1.845 1.875h27.413a1.861 1.861 0 0 0 1.868-1.853V14.404zm-19.194 3.735h7.272a1.557 1.557 0 0 1 0 3.112h-7.272a1.556 1.556 0 0 1 0-3.112zm0 4.15h7.272a2.593 2.593 0 0 0 0-5.188h-7.272a2.594 2.594 0 0 0 0 5.188z"/>
</svg>
