<svg xmlns="http://www.w3.org/2000/svg" width="20" height="16" viewBox="0 0 20 16">
  <path fill="none" stroke="#FFF"
        d="M11.7292467,2.27436648 L11.7292467,0.539349766 C11.7292467,0.240433028 10.5725689,0 9.12997072,0 L8.87004312,0 C7.9768957,0.0100389374 7.0941724,0.193204021 6.27076714,0.539349766 L6.27076714,2.27436648 L1.56607762,2.27436648 C0.703695838,2.27435906 0.00359219124,2.97155771 1.38436273e-05,3.83393207 L1.38436273e-05,6.77111393 L7.10903365,6.77111393 L7.10903365,6.0108257 L10.9234711,6.0108257 L10.9234711,6.77111393 L18,6.77111393 L18,3.83393207 C18.0000036,3.41918121 17.834801,3.02151163 17.5409188,2.72884884 C17.2470365,2.43618604 16.8486835,2.27263835 16.4339362,2.27436648 L11.7292467,2.27436648 Z M7.18051374,0.929241163 L10.8195001,0.929241163 L10.8195001,2.27436648 L7.18051374,2.27436648 L7.18051374,0.929241163 Z M10.9234711,7.79782794 L10.9234711,8.2721958 C10.9234711,8.2721958 7.60939427,8.33067951 7.1415246,8.2721958 C6.67365492,8.21371209 7.1415246,7.79782794 7.1415246,7.79782794 L0,7.79782794 L1.38436273e-05,12.7364523 C-0.00173834193,13.1517383 0.162904416,13.5504272 0.457168425,13.8434702 C0.751432435,14.1365132 1.15080253,14.2994968 1.56607762,14.2960179 L16.4339362,14.2960179 C16.8475598,14.2977449 17.2449281,14.135088 17.5386228,13.8438306 C17.8323176,13.5525732 17.9982802,13.1565741 18,12.7429505 L18,7.79782794 L10.9234711,7.79782794 Z"
        transform="translate(1 1)"/>
</svg>
