<?xml version="1.0" encoding="UTF-8"?>
<svg width="32px" height="31px" viewBox="0 0 32 31" version="1.1" xmlns="http://www.w3.org/2000/svg" xmlns:xlink="http://www.w3.org/1999/xlink">
    <!-- Generator: Sketch 52.5 (67469) - http://www.bohemiancoding.com/sketch -->
    <title>dash_4</title>
    <desc>Created with Sketch.</desc>
    <g id="Page-1" stroke="none" stroke-width="1" fill="none" fill-rule="evenodd">
        <g id="Artboard-Copy-5" fill-rule="nonzero" stroke="#FFFFFF" stroke-width="1.5">
            <g id="dash_4" transform="translate(1.000000, 0.000000)">
                <path d="M15.2,29.8 C7.2,29.8 0.7,23.3 0.7,15.3 C0.7,7.3 7.2,0.8 15.2,0.8 C23.2,0.8 29.7,7.3 29.7,15.3 C29.7,23.3 23.2,29.8 15.2,29.8 Z M7,23.6 C11.9,20.3 18.3,20.3 23.2,23.6 C27.8,19.2 27.9,11.9 23.5,7.3 C23.5,7.3 23.4,7.2 23.4,7.2 C18.9,2.7 11.6,2.6 7,7.1 C2.4,11.5 2.3,18.8 6.7,23.4 L6.8,23.5 L7,23.6 Z M15.9,12.6 L20.2,8.2 L22.4,10.2 L18.1,14.5 C18.6,16.1 17.7,17.7 16.1,18.1 C14.5,18.6 12.9,17.7 12.5,16.1 C12.1,14.5 12.9,12.9 14.5,12.5 C14.5,12.5 14.5,12.5 14.5,12.5 C14.9,12.5 15.4,12.5 15.9,12.6 Z" id="Path_643"></path>
            </g>
        </g>
    </g>
</svg>