<?xml version="1.0" encoding="UTF-8"?>
<svg width="28px" height="16px" viewBox="0 0 28 16" version="1.1" xmlns="http://www.w3.org/2000/svg" xmlns:xlink="http://www.w3.org/1999/xlink">
    <!-- Generator: Sketch 52.5 (67469) - http://www.bohemiancoding.com/sketch -->
    <title>fuel</title>
    <desc>Created with Sketch.</desc>
    <g id="Page-1" stroke="none" stroke-width="1" fill="none" fill-rule="evenodd">
        <g id="Artboard-Copy-3" stroke="#FFFFFF">
            <g id="fuel" transform="translate(1.000000, 1.000000)">
                <path d="M15.4514286,0.225 L3.78857143,0.225 C1.6962012,0.225 2.47421131e-16,1.93751083 0,4.05 L0,4.275 C2.47421131e-16,6.38748917 1.6962012,8.1 3.78857143,8.1 L15.4514286,8.1 C16.4562202,8.1 17.4198582,7.69701009 18.1303531,6.97968344 C18.8408481,6.26235679 19.24,5.28945307 19.24,4.275 L19.24,4.05 C19.24,1.93751083 17.5437988,0.225 15.4514286,0.225 Z" id="Path"></path>
                <polyline id="Path" points="3.863 9.6 20.577 9.6 20.577 3.3 23.4 3.3 26 5.925 26 12.525 24.886 12.525"></polyline>
                <ellipse id="Oval" cx="23.103" cy="12.525" rx="1.783" ry="1.8"></ellipse>
                <ellipse id="Oval" cx="11.811" cy="12.525" rx="1.783" ry="1.8"></ellipse>
                <ellipse id="Oval" cx="5.646" cy="12.525" rx="1.783" ry="1.8"></ellipse>
            </g>
        </g>
    </g>
</svg>