<?xml version="1.0" encoding="UTF-8"?>
<svg width="32px" height="21px" viewBox="0 0 32 21" version="1.1" xmlns="http://www.w3.org/2000/svg" xmlns:xlink="http://www.w3.org/1999/xlink">
    <!-- Generator: Sketch 52.5 (67469) - http://www.bohemiancoding.com/sketch -->
    <title>rewards copy</title>
    <desc>Created with Sketch.</desc>
    <g id="Page-1" stroke="none" stroke-width="1" fill="none" fill-rule="evenodd">
        <g id="Letter-Copy" transform="translate(-194.000000, -62.000000)" fill="#FFFFFF" fill-rule="nonzero">
            <g id="noun_Credit-Card_303135-Copy" transform="translate(194.000000, 62.000000)">
                <g id="Group">
                    <g id="rewards-copy">
                        <path d="M29,0 L3,0 C1.35,0 0,1.35 0,3 L0,18 C0,19.65 1.35,21 3,21 L29,21 C30.65,21 32,19.65 32,18 L32,3 C32,1.35 30.65,0 29,0 Z M3,1.5 L29,1.5 C29.85,1.5 30.5,2.15 30.5,3 L30.5,5 L1.5,5 L1.5,3 C1.5,2.15 2.15,1.5 3,1.5 Z M29,19.5 L3,19.5 C2.15,19.5 1.5,18.85 1.5,18 L1.5,9 L30.5,9 L30.5,18 C30.5,18.85 29.85,19.5 29,19.5 Z"></path>
                    </g>
                </g>
            </g>
        </g>
    </g>
</svg>