<?xml version="1.0" encoding="UTF-8"?>
<svg width="23px" height="32px" viewBox="0 0 23 32" version="1.1" xmlns="http://www.w3.org/2000/svg" xmlns:xlink="http://www.w3.org/1999/xlink">
    <!-- Generator: Sketch 52.5 (67469) - http://www.bohemiancoding.com/sketch -->
    <title>fuel-order</title>
    <desc>Created with Sketch.</desc>
    <g id="Page-1" stroke="none" stroke-width="1" fill="none" fill-rule="evenodd">
        <g id="Letter-Copy" transform="translate(-121.000000, -55.000000)">
            <g id="fuel-order" transform="translate(121.000000, 56.000000)">
                <g id="Group-3" transform="translate(0.000000, 4.000000)"></g>
                <path d="M4.94736842,4.5 L3,4.5 C1.61928813,4.5 0.5,5.61928813 0.5,7 L0.5,28 C0.5,29.3807119 1.61928813,30.5 3,30.5 L20,30.5 C21.3807119,30.5 22.5,29.3807119 22.5,28 L22.5,7 C22.5,5.61928813 21.3807119,4.5 20,4.5 L18.0526316,4.5 L18.0526316,5.45454545 C18.0526316,6.28297258 17.3810587,6.95454545 16.5526316,6.95454545 L6.44736842,6.95454545 C5.6189413,6.95454545 4.94736842,6.28297258 4.94736842,5.45454545 L4.94736842,4.5 Z" id="Combined-Shape" stroke="#FFFFFF" fill-opacity="0" fill="#FFFFFF"></path>
                <path d="M8.61046632,2.33333333 C8.91159204,1.00202648 10.2231319,0 11.7954545,0 C13.3677772,0 14.6793171,1.00202648 14.9804428,2.33333333 L16,2.33333333 C17.1045695,2.33333333 18,3.22876383 18,4.33333333 L18,5 C18,6.1045695 17.1045695,7 16,7 L7,7 C5.8954305,7 5,6.1045695 5,5 L5,4.33333333 C5,3.22876383 5.8954305,2.33333333 7,2.33333333 L8.61046632,2.33333333 Z M11.7954545,3.5 C12.2849797,3.5 12.6818182,3.10824916 12.6818182,2.625 C12.6818182,2.14175084 12.2849797,1.75 11.7954545,1.75 C11.3059294,1.75 10.9090909,2.14175084 10.9090909,2.625 C10.9090909,3.10824916 11.3059294,3.5 11.7954545,3.5 Z" id="Combined-Shape-Copy" stroke="#FFFFFF"></path>
                <path d="M18.522737,12 L15.071444,12 L8.50754416,12 L4.5161599,12 L4.47726297,12 C4.21708647,12 4,12.2274286 4,12.5 C4,12.7725714 4.21705238,13 4.47722887,13 L7.92855601,13 L14.4924558,13 L18.4838401,13 L18.522737,13 C18.7829135,13 19,12.7725714 19,12.5 C19,12.2274286 18.7829135,12 18.522737,12" id="Fill-12" fill="#FFFFFF"></path>
                <path d="M18.522737,18 L15.071444,18 L8.50754416,18 L4.5161599,18 L4.47726297,18 C4.21708647,18 4,18.2274286 4,18.5 C4,18.7725714 4.21705238,19 4.47722887,19 L7.92855601,19 L14.4924558,19 L18.4838401,19 L18.522737,19 C18.7829135,19 19,18.7725714 19,18.5 C19,18.2274286 18.7829135,18 18.522737,18" id="Fill-14" fill="#FFFFFF"></path>
                <path d="M7.51821326,24 L4.48178674,24 C4.21914414,24 4,24.2273929 4,24.5 C4,24.7725714 4.21914414,25 4.48178674,25 L7.51821326,25 C7.78085586,25 8,24.7725714 8,24.5 C8,24.2273929 7.78085586,24 7.51821326,24" id="Fill-16" fill="#FFFFFF"></path>
                <path d="M18.222818,21.1628605 C17.107445,22.5173611 15.992072,23.8718616 14.876764,25.2262439 C14.4807434,25.7072077 14.0847228,26.1880927 13.6886697,26.6690566 C13.0515225,25.8952704 12.4143428,25.1214842 11.7771632,24.3477374 C11.3621746,23.843739 10.7190837,24.6246643 11.1341047,25.1286627 L13.3671567,27.8404643 C13.5423828,28.0531786 13.8350216,28.0531786 14.0102477,27.8404643 C15.1256207,26.4859637 16.2409612,25.1314237 17.3563017,23.777002 C17.8594716,23.1659563 18.3627065,22.5549105 18.8659089,21.9437858 C19.2808974,21.4397875 18.637839,20.6588621 18.222818,21.1628605" id="Fill-18" fill="#FFFFFF"></path>
            </g>
        </g>
    </g>
</svg>