<svg width="21" height="16" viewBox="0 0 21 16" xmlns="http://www.w3.org/2000/svg">
    <path d="M16.83 7.385a4.17 4.17 0 1 1 0 8.34 4.17 4.17 0 0 1 0-8.34zm.417 1.668h-.834v2.669l1.793 1.793.584-.592-1.543-1.543V9.053zM16.88 0c1.058.079 1.743.607 2.056 1.584l.054.188v4.629a6.646 6.646 0 0 0-1.758-.047l-.352.047V2.11H2.11v8.44c0 .006.08.01.242.011h.303c.17 0 .378-.003.626-.006v-.005h8.678a7.126 7.126 0 0 0-.354 2.11H2.11c-1.558 0-2.07-1.38-2.108-2.032L0 10.55V2.11C0 .874.971.072 1.973.005L2.11 0h14.77zM9.495 3.165a3.165 3.165 0 1 1 0 6.33 3.165 3.165 0 0 1 0-6.33z" fill="#FFF" fill-rule="evenodd"/>
</svg>
