<?xml version="1.0" encoding="UTF-8"?>
<svg width="26px" height="32px" viewBox="0 0 26 32" version="1.1" xmlns="http://www.w3.org/2000/svg" xmlns:xlink="http://www.w3.org/1999/xlink">
    <!-- Generator: Sketch 52.5 (67469) - http://www.bohemiancoding.com/sketch -->
    <title>invoices copy</title>
    <desc>Created with Sketch.</desc>
    <g id="Page-1" stroke="none" stroke-width="1" fill="none" fill-rule="evenodd">
        <g id="Letter-Copy" transform="translate(-154.000000, -56.000000)" fill="#FFFFFF" fill-rule="nonzero">
            <g id="noun_invoice_1623980-copy" transform="translate(154.000000, 56.000000)">
                <g id="Group">
                    <g id="invoices-copy">
                        <path d="M25.1915541,29.1017187 L3.7517103,29.1017187 C3.39243294,29.1017187 3.1017103,28.8154687 3.1017103,28.4617187 L3.1017103,0.640156224 C3.1017103,0.28671872 3.39243294,0.000156224 3.7517103,0.000156224 L18.9632338,0.000156224 C19.3225111,0.000156224 19.6132338,0.28671872 19.6132338,0.640156224 L19.6132338,6.13234374 L25.1915541,6.13234374 C25.5508315,6.13234374 25.8415541,6.41890624 25.8415541,6.77234374 L25.8415541,28.4617187 C25.8415541,28.8154687 25.5508314,29.1017187 25.1915541,29.1017187 Z M4.4017103,27.8217187 L24.5415541,27.8217187 L24.5415541,7.41234374 L18.9632337,7.41234374 C18.6039563,7.41234374 18.3132337,7.12578125 18.3132337,6.77234374 L18.3132337,1.28015622 L4.4017103,1.28015622 L4.4017103,27.8217187 Z M25.191554,7.41234374 L18.9632337,7.41234374 C18.6039563,7.41234374 18.3132337,7.12578125 18.3132337,6.77234374 L18.3132337,0.640156224 C18.3132337,0.381406208 18.4712904,0.147968704 18.7144056,0.04890624 C18.9575208,-0.049843776 19.2368177,0.004531264 19.422804,0.187656256 L25.6511244,6.31984378 C25.8371107,6.50296877 25.8929701,6.77796877 25.7920424,7.01734381 C25.6917494,7.25640627 25.454347,7.41234374 25.191554,7.41234374 Z M19.6132338,6.13234374 L23.6224135,6.13234374 L19.6132338,2.18515622 L19.6132338,6.13234374 Z M11.3606459,12.4848438 C9.99907357,12.4848438 8.89140759,11.3942188 8.89140759,10.0539063 C8.89140759,9.7004688 9.18213023,9.4139063 9.54140759,9.4139063 C9.90068495,9.4139063 10.1914076,9.7004688 10.1914076,10.0539063 C10.1914076,10.6885938 10.715724,11.2048438 11.3606459,11.2048438 C12.0017591,11.2048438 12.5235365,10.6885938 12.5235365,10.0539063 C12.5235365,9.42234381 12.0017591,8.90859379 11.3606459,8.90859379 C9.99907357,8.90859379 8.89140759,7.81796877 8.89140759,6.47765632 C8.89140759,5.1404688 9.99907363,4.05234381 11.3606459,4.05234381 C12.7184095,4.05234381 13.8235365,5.1404688 13.8235365,6.47765632 C13.8235365,6.83109382 13.5328138,7.11765632 13.1735365,7.11765632 C12.8142591,7.11765632 12.5235365,6.83109382 12.5235365,6.47765632 C12.5235365,5.84609382 12.0017591,5.33234381 11.3606459,5.33234381 C10.715724,5.33234381 10.1914076,5.84609382 10.1914076,6.47765632 C10.1914076,7.11234381 10.715724,7.62859379 11.3606459,7.62859379 C12.7184095,7.62859379 13.8235365,8.71671878 13.8235365,10.0539063 C13.8235365,11.3942188 12.7184095,12.4848438 11.3606459,12.4848438 Z M11.3606459,13.2151562 C11.0013685,13.2151562 10.7106459,12.9285937 10.7106459,12.5751562 L10.7106459,11.8448437 C10.7106459,11.4914062 11.0013685,11.2048437 11.3606459,11.2048437 C11.7199232,11.2048437 12.0106459,11.4914062 12.0106459,11.8448437 L12.0106459,12.5751562 C12.0106459,12.9285937 11.7199232,13.2151562 11.3606459,13.2151562 Z M11.3606459,5.33234374 C11.0013685,5.33234374 10.7106459,5.04578125 10.7106459,4.69234374 L10.7106459,3.95609376 C10.7106459,3.60265626 11.0013685,3.31609376 11.3606459,3.31609376 C11.7199232,3.31609376 12.0106459,3.60265626 12.0106459,3.95609376 L12.0106459,4.69234374 C12.0106459,5.04578125 11.7199232,5.33234374 11.3606459,5.33234374 Z M22.8968763,15.6423437 L6.04638808,15.6423437 C5.68711072,15.6423437 5.39638808,15.3557812 5.39638808,15.0023437 C5.39638808,14.6489062 5.68711072,14.3623437 6.04638808,14.3623437 L22.8968763,14.3623437 C23.2561537,14.3623437 23.5468763,14.6489062 23.5468763,15.0023437 C23.5468763,15.3557812 23.2561537,15.6423437 22.8968763,15.6423437 Z M22.8968763,19.0235937 L6.04638808,19.0235937 C5.68711072,19.0235937 5.39638808,18.7373437 5.39638808,18.3835937 C5.39638808,18.0298437 5.68711072,17.7435937 6.04638808,17.7435937 L22.8968763,17.7435937 C23.2561537,17.7435937 23.5468763,18.0298437 23.5468763,18.3835937 C23.5468763,18.7373437 23.2561537,19.0235937 22.8968763,19.0235937 Z M22.8968763,22.4048438 L6.04638808,22.4048438 C5.68711072,22.4048438 5.39638808,22.1185938 5.39638808,21.7648438 C5.39638808,21.4110938 5.68711072,21.1248438 6.04638808,21.1248438 L22.8968763,21.1248438 C23.2561537,21.1248438 23.5468763,21.4110938 23.5468763,21.7648438 C23.5468763,22.1185938 23.2561537,22.4048438 22.8968763,22.4048438 Z M14.4716322,25.7860938 L6.04638808,25.7860938 C5.68711072,25.7860938 5.39638808,25.4998438 5.39638808,25.1460938 C5.39638808,24.7923437 5.68711072,24.5060938 6.04638808,24.5060938 L14.4716322,24.5060938 C14.8309096,24.5060938 15.1216322,24.7923437 15.1216322,25.1460938 C15.1216322,25.4998438 14.8309095,25.7860938 14.4716322,25.7860938 Z M22.2481459,31.9998438 L0.808302105,31.9998438 C0.449025395,31.9998438 0.158302755,31.7135938 0.158302755,31.3598438 L0.158302755,3.53828128 C0.158302755,3.18484378 0.449025395,2.89828128 0.808302105,2.89828128 L3.7517103,2.89828128 C4.11098766,2.89828128 4.4017103,3.18484378 4.4017103,3.53828128 L4.4017103,27.8217188 L22.2481459,27.8217188 C22.6074232,27.8217188 22.8981459,28.1079688 22.8981459,28.4617188 L22.8981459,31.3598438 C22.8981459,31.7135937 22.6074232,31.9998438 22.2481459,31.9998438 Z M1.45830211,30.7198438 L21.5981459,30.7198438 L21.5981459,29.1017188 L3.7517103,29.1017188 C3.39243294,29.1017188 3.1017103,28.8154688 3.1017103,28.4617188 L3.1017103,4.17828128 L1.45830211,4.17828128 L1.45830211,30.7198438 Z"></path>
                    </g>
                </g>
            </g>
        </g>
    </g>
</svg>