<svg xmlns="http://www.w3.org/2000/svg" width="37" height="28" viewBox="0 0 37 28">
  <path fill="#FEFEFE" fill-rule="evenodd"
        d="M34.6 2.406L7.945 14.91a2.312 2.312 0 0 1-2.861-.754l-3.011-5.12h.45a.553.553 0 0 1 .452.152l2.71 2.107a2.404 2.404 0 0 0 2.26.3l9.035-3.913c.3-.151.45-.3.45-.601a1.154 1.154 0 0 0-.308-.754l-6.616-4.82h.904c1.794 0 3.559.466 5.12 1.349l5.573 2.26c.15.15.45 0 .6 0l7.23-3.162a4.782 4.782 0 0 1 4.667.45m.754-1.35a7.388 7.388 0 0 0-6.17-.45L22.25 3.617l-5.13-2.11A10.852 10.852 0 0 0 11.409.003H8.254a.829.829 0 0 0-.754.45c0 .302 0 .755.3.905l7.223 5.422-7.681 3.47a.661.661 0 0 1-.754-.15l-2.71-2.115a2.432 2.432 0 0 0-1.348-.452H.717c-.301 0-.451.15-.601.452a.673.673 0 0 0 0 .754l3.765 6.169a3.728 3.728 0 0 0 3.162 1.657 6.473 6.473 0 0 0 1.656-.301L35.354 3.767a2.09 2.09 0 0 0 .754-1.506 1.192 1.192 0 0 0-.754-1.205M17.283 25.602H.717a.754.754 0 0 0 0 1.506h16.566a.754.754 0 1 0 0-1.506"/>
</svg>
